<?xml version="1.0" encoding="UTF-8"?>
<svg xmlns="http://www.w3.org/2000/svg" viewBox="0 0 640 640">
  <defs>
    <style>
      .cls-1 {
        fill: #f966ff;
      }

      .cls-2 {
        fill: #fff;
      }

      .cls-3 {
        fill: #ffd300;
      }

      .cls-4 {
        fill: #ff8c00;
      }

      .cls-5 {
        fill: #66c4ff;
      }

      .cls-6 {
        fill: #aee938;
      }

      .cls-7 {
        fill: #dddce0;
      }

      .cls-8 {
        fill: #10162f;
      }

      .cls-9 {
        fill: #3a10e5;
      }
    </style>
  </defs>
  <g id="Layer_5" data-name="Layer 5">
    <g>
      <path class="cls-7" d="M159.95,248.06c23.49,.37,27.57,.24,164.05-5.38,24.13-.99,89.22-3.96,153.67-6.59,1.93-.08,2.98-.09,2.98-.09l1.22,41.48s-111.57,3.03-164.08,2.46c-82.49-.89-157.83-1.89-157.83-1.89v-30Z"/>
      <path class="cls-8" d="M332.26,280.52c-5.19,0-10.05-.02-14.49-.07-81.55-.88-157.08-1.88-157.84-1.89h-.49v-31h.51c23.38,.38,27.98,.23,164.02-5.37,8.68-.36,22.65-.97,39.98-1.73,30.56-1.34,72.42-3.18,113.7-4.86,1.94-.08,2.99-.09,2.99-.09h.49l1.25,42.47h-.5c-1.02,.04-94.01,2.55-149.62,2.55Zm-171.82-2.96c6.67,.09,79.25,1.05,157.34,1.89,50.12,.54,155.36-2.23,163.56-2.45l-1.19-40.49c-.48,.01-1.32,.03-2.47,.08-41.28,1.68-83.13,3.51-113.69,4.86-17.33,.76-31.3,1.37-39.98,1.73-135.08,5.56-140.6,5.75-163.57,5.39v29Z"/>
    </g>
    <g>
      <path class="cls-7" d="M159.75,292.67s23.92-.02,120.48-4.25c28.78-1.26,91.2-5.03,197.76-8.8,3.26-.12,5.04,.4,5.04,.4l.27,30.27c-86.84,1.38-133.33,5.8-206.17,4.67-56.33-.87-117.18-.2-117.18-.2l-.2-22.09Z"/>
      <path class="cls-8" d="M300.7,315.64c-7.58,0-15.41-.06-23.58-.18-55.68-.86-116.55-.21-117.16-.2h-.5l-.21-23.09h.5c.24,0,25.03-.06,120.46-4.25,7.49-.33,17.19-.82,29.48-1.45,35.62-1.82,89.45-4.56,168.29-7.35,3.29-.12,5.12,.4,5.2,.42l.36,.1,.27,31.14h-.5c-35.63,.57-63.85,1.63-91.13,2.65-31.33,1.17-59.2,2.21-91.48,2.21Zm-88.1-1.63c19.62,0,42.48,.1,64.53,.45,42.94,.66,76.33-.58,115.01-2.03,27.16-1.02,55.24-2.06,90.65-2.63l-.26-29.38c-.66-.14-2.21-.38-4.52-.3-78.83,2.79-132.66,5.54-168.27,7.35-12.29,.63-22,1.12-29.49,1.45-88.19,3.87-116.07,4.22-120,4.25l.19,21.09c3.48-.04,24.62-.24,52.16-.24Z"/>
    </g>
    <g>
      <path class="cls-7" d="M159.75,329.36s16.58,1.69,134.88-7.34c43.15-3.3,78.69-4.28,119.42-6.64,34.6-2,74.61-2.78,68.98-2.48l-.07,26.05c-20.05,.18-70.31-.28-146.54,2.96-93.7,3.98-176.47,4.42-176.47,4.42l-.2-16.98Z"/>
      <path class="cls-8" d="M159.45,346.84l-.21-18.03,.56,.06c.17,.01,18.06,1.57,134.79-7.34,27.32-2.09,52.1-3.27,76.06-4.41,13.97-.67,28.42-1.36,43.36-2.22,18.24-1.06,37.19-1.72,46.86-2.02,15.84-.5,20.74-.56,22.31-.46,.14,0,.22-.01,.26-.02v.04c.44,.04,.48,.1,.52,.17l.16,.24-.13,.26c-.1,.19-.21,.25-.48,.29l-.07,26.08h-.49c-3.32,.03-7.47,.04-12.43,.06-24.64,.07-70.5,.2-134.09,2.9-92.64,3.93-175.66,4.42-176.49,4.42h-.5Zm.8-16.94l.19,15.94c7.04-.05,87.07-.65,175.95-4.42,63.62-2.7,109.49-2.83,134.13-2.9,4.71-.01,8.7-.03,11.93-.05l.07-25.11c-6,.04-38.67,.81-68.45,2.54-14.95,.87-29.4,1.56-43.37,2.22-23.95,1.14-48.72,2.33-76.03,4.41-106.24,8.11-130.69,7.56-134.41,7.38Z"/>
    </g>
    <g>
      <path class="cls-7" d="M159.63,361.03s17.92-.79,38.62-1.92c20.68-1.13,43.22-4.97,102.02-10.06,91.86-7.95,166.4-6.82,182.75-7.62l-.07,16.51c-57.2,1.71-114.16,4.57-154.82,7.96-96.89,8.07-168.19,8.18-168.19,8.18l-.32-13.04Z"/>
      <path class="cls-8" d="M159.95,374.57c-.27,0-.49-.22-.5-.49l-.32-13.03c0-.27,.21-.5,.48-.51,.18,0,18.15-.81,38.62-1.92,9.74-.53,19.96-1.67,34.1-3.25,15.55-1.74,36.84-4.12,67.91-6.81,70.86-6.14,130.75-6.86,162.92-7.25,9.36-.11,16.12-.19,19.85-.38,.14-.02,.27,.04,.37,.14,.1,.09,.16,.23,.15,.36l-.07,16.51c0,.27-.22,.49-.49,.5-58.82,1.76-115.24,4.66-154.8,7.96-95.8,7.98-167.52,8.18-168.23,8.18h0Zm.19-13.06l.29,12.06c6.48-.03,76.05-.54,167.66-8.18,39.46-3.29,95.71-6.18,154.37-7.95l.07-15.5c-3.84,.17-10.42,.25-19.36,.35-32.16,.39-92.02,1.11-162.84,7.24-31.05,2.69-52.34,5.07-67.89,6.81-14.16,1.58-24.38,2.73-34.15,3.26-18.59,1.01-35.12,1.77-38.14,1.9Z"/>
    </g>
  </g>
  <g id="Layer_4" data-name="Layer 4">
    <g>
      <path class="cls-7" d="M159.95,73.4l321.79,4.53-.47,155.43s-74.82,2.54-155.29,1.69c-76.8-.81-166.02-1.65-166.02-1.65V73.4Z"/>
      <path class="cls-8" d="M359.63,235.73c-11,0-22.28-.05-33.66-.17-75.92-.8-165.13-1.65-166.02-1.65h-.5V72.89h.51l322.28,4.54v.49l-.47,155.92-.48,.02c-.64,.02-55.82,1.87-121.65,1.87Zm-199.18-2.82c7.29,.07,92.55,.88,165.53,1.65,76.21,.8,148.22-1.46,154.79-1.68l.47-154.46-320.79-4.51V232.9Z"/>
    </g>
    <g>
      <rect class="cls-1" x="40" y="73.38" width="120" height="160"/>
      <path class="cls-8" d="M160.5,233.88H39.5V72.88h121V233.88Zm-120-1h119V73.88H40.5V232.88Z"/>
    </g>
    <g>
      <rect class="cls-4" x="40" y="248.02" width="120" height="30"/>
      <path class="cls-8" d="M160.5,278.52H39.5v-31h121v31Zm-120-1h119v-29H40.5v29Z"/>
    </g>
    <g>
      <rect class="cls-3" x="40" y="292.66" width="120" height="22"/>
      <path class="cls-8" d="M160.5,315.16H39.5v-23h121v23Zm-120-1h119v-21H40.5v21Z"/>
    </g>
    <g>
      <rect class="cls-6" x="40" y="329.3" width="120" height="17"/>
      <path class="cls-8" d="M160.5,346.8H39.5v-18h121v18Zm-120-1h119v-16H40.5v16Z"/>
    </g>
    <g>
      <path d="M485.8,45.26h-4.29v-2.64h11.44v2.64h-4.29v12.76h-2.86v-12.76Z"/>
      <path d="M493.41,57.32c-.63-.59-.95-1.42-.95-2.49s.42-1.98,1.25-2.64,1.96-.99,3.39-.99h1.94v-.48c0-.54-.18-.95-.55-1.22-.37-.27-.83-.41-1.39-.41-.95,0-1.59,.42-1.91,1.28l-2.31-.53c.18-.92,.65-1.67,1.42-2.23,.77-.56,1.7-.85,2.8-.85,1.48,0,2.63,.39,3.44,1.18,.81,.79,1.22,1.94,1.22,3.46v6.62h-2.24l-.29-1.41c-.87,1.06-2,1.58-3.41,1.58-.98,0-1.79-.29-2.42-.88Zm4.88-2.08c.5-.42,.75-.97,.75-1.66v-.22h-1.83c-.6,0-1.07,.12-1.4,.35-.33,.23-.5,.59-.5,1.08,0,.32,.11,.58,.34,.78s.52,.3,.89,.3c.66,0,1.24-.21,1.74-.63Z"/>
      <path d="M507.27,46.93v1.8c.4-.63,.88-1.12,1.45-1.46,.57-.34,1.18-.52,1.83-.52,.41,0,.86,.07,1.34,.22l-.51,2.53c-.34-.21-.72-.31-1.14-.31-.87,0-1.58,.39-2.13,1.18-.56,.78-.84,2.02-.84,3.71v3.94h-2.73v-11.09h2.73Z"/>
      <path d="M513.82,61.74c-.93-.63-1.4-1.53-1.4-2.71,0-.91,.3-1.64,.9-2.2-.38-.45-.57-1.03-.57-1.72,0-.51,.12-.97,.36-1.36,.24-.4,.58-.72,1-.97-.51-.63-.77-1.39-.77-2.29,0-.75,.18-1.4,.54-1.97,.36-.56,.85-1,1.47-1.31,.62-.31,1.31-.46,2.06-.46s1.4,.16,2.05,.48l2.09-1.1,1.08,1.8-1.58,.79c.29,.51,.44,1.1,.44,1.76,0,.75-.18,1.41-.54,1.97s-.85,.99-1.47,1.29c-.62,.29-1.31,.44-2.06,.44-.56,0-1.09-.08-1.61-.24-.35,.21-.53,.48-.53,.84,0,.26,.09,.47,.26,.61s.43,.21,.77,.21h2.27c1.19,0,2.13,.28,2.84,.85,.7,.57,1.06,1.37,1.06,2.41,0,.87-.24,1.58-.71,2.16s-1.1,.99-1.86,1.26c-.76,.27-1.58,.41-2.46,.41-1.48,0-2.69-.32-3.62-.95Zm5.3-1.67c.42-.22,.63-.56,.63-1.03,0-.42-.15-.72-.46-.89-.31-.17-.75-.25-1.32-.25h-1.5c-.5,0-.92-.03-1.28-.09-.16,.25-.24,.59-.24,1.01,0,.51,.23,.91,.68,1.18,.46,.27,1.06,.41,1.8,.41,.7,0,1.26-.11,1.68-.33Zm-.62-8.49c.29-.28,.43-.64,.43-1.08s-.14-.82-.43-1.11-.65-.43-1.09-.43-.8,.14-1.09,.43-.43,.66-.43,1.11,.14,.8,.43,1.08c.29,.28,.65,.42,1.09,.42s.8-.14,1.09-.42Z"/>
      <path d="M534.18,53.36h-7.66c.12,.82,.41,1.45,.87,1.87,.46,.43,1.05,.64,1.77,.64,.62,0,1.13-.14,1.55-.42,.42-.28,.8-.71,1.13-1.3l2.2,.81c-.46,1.04-1.09,1.84-1.9,2.4-.81,.56-1.86,.84-3.13,.84-1.2,0-2.2-.28-3-.85s-1.39-1.28-1.76-2.16c-.37-.87-.56-1.78-.56-2.72s.19-1.84,.56-2.72c.37-.87,.96-1.59,1.76-2.16s1.8-.85,3-.85,2.13,.27,2.9,.82c.78,.55,1.35,1.24,1.72,2.08,.37,.84,.55,1.69,.55,2.57v1.12Zm-2.79-2.16c-.13-.62-.39-1.12-.78-1.52-.39-.4-.92-.59-1.59-.59-.59,0-1.09,.18-1.52,.54-.43,.36-.73,.88-.9,1.57h4.8Z"/>
      <path d="M538.09,57.16c-.72-.69-1.08-1.71-1.08-3.06v-4.84h-1.72v-2.33h1.72v-2.77l2.73-1.72v4.49h2.93v2.33h-2.93v4.8c0,.66,.12,1.13,.36,1.4,.24,.27,.61,.41,1.09,.41,.37,0,.72-.09,1.06-.26l.64,2.2c-.57,.26-1.17,.4-1.8,.4-1.28,0-2.27-.34-2.99-1.03Z"/>
      <path d="M556.27,42.62c1.57,0,2.76,.43,3.59,1.29,.82,.86,1.23,1.99,1.23,3.4s-.41,2.54-1.23,3.4c-.82,.86-2.02,1.29-3.59,1.29h-2.95v6.03h-2.86v-15.4h5.81Zm1.38,6.23c.35-.34,.53-.85,.53-1.54s-.18-1.2-.53-1.54c-.35-.34-.85-.51-1.5-.51h-2.84v4.09h2.84c.65,0,1.14-.17,1.5-.51Z"/>
      <path d="M563.15,57.32c-.63-.59-.95-1.42-.95-2.49s.42-1.98,1.25-2.64,1.97-.99,3.39-.99h1.94v-.48c0-.54-.18-.95-.55-1.22-.37-.27-.83-.41-1.39-.41-.95,0-1.59,.42-1.91,1.28l-2.31-.53c.18-.92,.65-1.67,1.42-2.23,.77-.56,1.71-.85,2.81-.85,1.48,0,2.63,.39,3.44,1.18,.81,.79,1.22,1.94,1.22,3.46v6.62h-2.24l-.29-1.41c-.87,1.06-2,1.58-3.41,1.58-.98,0-1.79-.29-2.42-.88Zm4.88-2.08c.5-.42,.75-.97,.75-1.66v-.22h-1.83c-.6,0-1.07,.12-1.4,.35-.33,.23-.5,.59-.5,1.08,0,.32,.11,.58,.34,.78s.52,.3,.89,.3c.66,0,1.24-.21,1.74-.63Z"/>
      <path d="M574.84,61.74c-.93-.63-1.4-1.53-1.4-2.71,0-.91,.3-1.64,.9-2.2-.38-.45-.57-1.03-.57-1.72,0-.51,.12-.97,.36-1.36,.24-.4,.58-.72,1-.97-.51-.63-.77-1.39-.77-2.29,0-.75,.18-1.4,.54-1.97,.36-.56,.85-1,1.47-1.31,.62-.31,1.31-.46,2.06-.46s1.4,.16,2.05,.48l2.09-1.1,1.08,1.8-1.58,.79c.29,.51,.44,1.1,.44,1.76,0,.75-.18,1.41-.54,1.97s-.85,.99-1.47,1.29c-.62,.29-1.31,.44-2.06,.44-.56,0-1.09-.08-1.61-.24-.35,.21-.53,.48-.53,.84,0,.26,.09,.47,.26,.61,.18,.14,.43,.21,.77,.21h2.27c1.19,0,2.13,.28,2.84,.85,.7,.57,1.06,1.37,1.06,2.41,0,.87-.24,1.58-.71,2.16-.48,.57-1.1,.99-1.86,1.26s-1.58,.41-2.46,.41c-1.48,0-2.69-.32-3.62-.95Zm5.3-1.67c.42-.22,.63-.56,.63-1.03,0-.42-.15-.72-.46-.89-.31-.17-.75-.25-1.32-.25h-1.5c-.5,0-.92-.03-1.28-.09-.16,.25-.24,.59-.24,1.01,0,.51,.23,.91,.68,1.18,.46,.27,1.06,.41,1.8,.41,.7,0,1.26-.11,1.68-.33Zm-.62-8.49c.29-.28,.43-.64,.43-1.08s-.14-.82-.43-1.11-.65-.43-1.09-.43-.8,.14-1.09,.43-.43,.66-.43,1.11,.14,.8,.43,1.08c.29,.28,.65,.42,1.09,.42s.8-.14,1.09-.42Z"/>
      <path d="M595.21,53.36h-7.66c.12,.82,.41,1.45,.87,1.87,.46,.43,1.05,.64,1.77,.64,.62,0,1.13-.14,1.55-.42,.42-.28,.79-.71,1.13-1.3l2.2,.81c-.46,1.04-1.09,1.84-1.9,2.4-.81,.56-1.86,.84-3.13,.84-1.2,0-2.2-.28-3-.85-.8-.56-1.39-1.28-1.76-2.16-.37-.87-.56-1.78-.56-2.72s.19-1.84,.56-2.72c.37-.87,.96-1.59,1.76-2.16,.8-.56,1.8-.85,3-.85s2.13,.27,2.9,.82c.78,.55,1.35,1.24,1.72,2.08,.37,.84,.55,1.69,.55,2.57v1.12Zm-2.79-2.16c-.13-.62-.39-1.12-.78-1.52-.39-.4-.92-.59-1.59-.59-.59,0-1.09,.18-1.52,.54-.43,.36-.73,.88-.9,1.57h4.8Z"/>
    </g>
    <g>
      <path d="M61.78,157.65c-1.45,0-2.83-.84-2.83-3.1s1.38-3.09,2.83-3.09,2.83,.83,2.83,3.09-1.39,3.1-2.83,3.1Zm0-5.03c-.76,0-1.24,.56-1.24,1.93s.48,1.94,1.24,1.94,1.24-.57,1.24-1.94-.48-1.93-1.24-1.93Z"/>
      <path d="M67.48,150h1.58v1.58h2.31v1.2h-2.31v2.86c0,.56,.19,.67,.65,.67h1.64v1.19h-2.22c-1.29,0-1.65-.43-1.65-1.61v-3.11h-1.72v-1.2h1.72v-1.58Z"/>
      <path d="M75.01,149.53v2.75c.34-.53,.89-.83,1.58-.83,1.36,0,1.91,.91,1.91,2.33v3.72h-1.58v-3.45c0-.63-.06-1.38-.86-1.38-.89,0-1.06,.79-1.06,1.69v3.14h-1.58v-7.98h1.58Z"/>
      <path d="M81.82,154.95c.06,1.09,.65,1.57,1.31,1.57s1-.32,1.12-.87h1.51c-.17,1-1.06,1.99-2.65,1.99-1.85,0-2.81-1.23-2.81-3.05s1.02-3.15,2.78-3.15,2.83,1.32,2.77,3.5h-4.04Zm0-1h2.53c-.03-1.08-.66-1.36-1.29-1.36-.51,0-1.16,.36-1.24,1.36Z"/>
      <path d="M90.51,151.58v1c.24-.51,.7-1,1.64-1h.9v1.27h-1.13c-1,0-1.39,.47-1.39,1.63v1.84h2.15v1.19h-5.2v-1.19h1.47v-3.53h-1.47v-1.2h3.04Z"/>
      <path d="M95.36,155.35v-1.53h3.89v1.53h-3.89Z"/>
      <path d="M105.47,153.34c-.11-.52-.53-.74-1.21-.74-.48,0-.87,.2-.87,.52s.34,.53,.77,.64l.65,.15c1.17,.28,2.09,.59,2.09,1.77,0,1.25-1.14,1.96-2.46,1.96-1.41,0-2.41-.78-2.55-2.13h1.4c.07,.61,.5,.97,1.22,.97,.59,0,.96-.21,.96-.6s-.42-.57-.91-.69l-.7-.17c-1.08-.25-1.82-.74-1.82-1.78,0-1.14,1.03-1.78,2.32-1.78,1.09,0,2.28,.54,2.49,1.89h-1.36Z"/>
      <path d="M110.24,154.95c.06,1.09,.65,1.57,1.31,1.57s1-.32,1.12-.87h1.51c-.17,1-1.06,1.99-2.65,1.99-1.85,0-2.81-1.23-2.81-3.05s1.02-3.15,2.78-3.15,2.83,1.32,2.77,3.5h-4.04Zm0-1h2.53c-.03-1.08-.66-1.36-1.29-1.36-.51,0-1.16,.36-1.24,1.36Z"/>
      <path d="M117.82,157.65c-1.01,0-2-.65-2-1.73,0-1.51,1.73-1.82,3.72-2.07v-.13c0-.91-.4-1.22-1.05-1.22s-1.06,.31-1.1,.96h-1.42c.11-1.17,1.07-2.02,2.57-2.02s2.51,.59,2.51,2.6c0,.19-.02,.98-.02,1.52,0,1.63,.07,1.78,.12,1.96h-1.44v-.76c-.43,.63-1.03,.9-1.89,.9Zm1.76-2.83c-1.53,.15-2.2,.33-2.2,1.03,0,.44,.3,.71,.87,.71,.99,0,1.33-.64,1.33-1.59v-.15Z"/>
      <path d="M126.04,151.58v1c.24-.51,.7-1,1.64-1h.9v1.27h-1.13c-1,0-1.39,.47-1.39,1.63v1.84h2.15v1.19h-5.2v-1.19h1.47v-3.53h-1.47v-1.2h3.04Z"/>
      <path d="M135.44,153.72h-1.5c-.09-.63-.38-1.1-1.09-1.1s-1.14,.61-1.14,1.94,.44,1.92,1.14,1.92c.48,0,.98-.24,1.12-1.14h1.52c-.21,1.61-1.47,2.31-2.66,2.31-1.73,0-2.71-1.3-2.71-3.09s1-3.1,2.74-3.1c1.16,0,2.4,.69,2.57,2.27Z"/>
      <path d="M138.96,149.53v2.75c.34-.53,.89-.83,1.58-.83,1.36,0,1.92,.91,1.92,2.33v3.72h-1.58v-3.45c0-.63-.05-1.38-.86-1.38-.89,0-1.06,.79-1.06,1.69v3.14h-1.58v-7.98h1.58Z"/>
    </g>
    <g>
      <path d="M52.74,268.68c-1.45,0-2.83-.84-2.83-3.1s1.38-3.09,2.83-3.09,2.83,.83,2.83,3.09-1.39,3.1-2.83,3.1Zm0-5.03c-.76,0-1.24,.56-1.24,1.93s.48,1.94,1.24,1.94,1.24-.57,1.24-1.94-.48-1.93-1.24-1.93Z"/>
      <path d="M58.44,261.04h1.58v1.58h2.31v1.2h-2.31v2.86c0,.56,.19,.67,.65,.67h1.64v1.19h-2.22c-1.29,0-1.65-.43-1.65-1.61v-3.11h-1.72v-1.2h1.72v-1.58Z"/>
      <path d="M65.98,260.56v2.75c.34-.53,.89-.83,1.58-.83,1.36,0,1.91,.91,1.91,2.33v3.72h-1.58v-3.45c0-.63-.06-1.38-.86-1.38-.89,0-1.06,.79-1.06,1.69v3.14h-1.58v-7.98h1.58Z"/>
      <path d="M72.78,265.99c.06,1.09,.65,1.57,1.31,1.57s1-.32,1.12-.87h1.51c-.17,1-1.06,1.99-2.65,1.99-1.85,0-2.81-1.23-2.81-3.05s1.02-3.15,2.78-3.15,2.83,1.32,2.77,3.5h-4.04Zm0-1h2.53c-.03-1.08-.66-1.36-1.29-1.36-.51,0-1.16,.36-1.24,1.36Z"/>
      <path d="M81.47,262.62v1c.24-.51,.7-1,1.64-1h.9v1.27h-1.13c-1,0-1.39,.47-1.39,1.63v1.84h2.15v1.19h-5.2v-1.19h1.47v-3.53h-1.47v-1.2h3.04Z"/>
      <path d="M86.33,266.38v-1.53h3.89v1.53h-3.89Z"/>
      <path d="M94.1,265.99c.06,1.09,.65,1.57,1.31,1.57s1-.32,1.12-.87h1.51c-.17,1-1.06,1.99-2.65,1.99-1.85,0-2.81-1.23-2.81-3.05s1.02-3.15,2.78-3.15,2.83,1.32,2.77,3.5h-4.04Zm0-1h2.53c-.03-1.08-.66-1.36-1.29-1.36-.51,0-1.16,.36-1.24,1.36Z"/>
      <path d="M101.67,265.56l-1.91-2.94h1.74l1.04,1.67,1.07-1.67h1.61l-1.93,2.83,2.04,3.09h-1.75l-1.14-1.83-1.18,1.83h-1.61l2.02-2.98Z"/>
      <path d="M108.18,261.04h1.58v1.58h2.31v1.2h-2.31v2.86c0,.56,.19,.67,.65,.67h1.64v1.19h-2.22c-1.29,0-1.65-.43-1.65-1.61v-3.11h-1.72v-1.2h1.72v-1.58Z"/>
      <path d="M115.42,265.99c.06,1.09,.65,1.57,1.31,1.57s1-.32,1.12-.87h1.51c-.17,1-1.06,1.99-2.65,1.99-1.85,0-2.81-1.23-2.81-3.05s1.02-3.15,2.78-3.15,2.83,1.32,2.77,3.5h-4.04Zm0-1h2.53c-.03-1.08-.66-1.36-1.29-1.36-.51,0-1.16,.36-1.24,1.36Z"/>
      <path d="M124.11,262.62v1c.24-.51,.7-1,1.64-1h.9v1.27h-1.13c-1,0-1.39,.47-1.39,1.63v1.84h2.15v1.19h-5.2v-1.19h1.47v-3.53h-1.47v-1.2h3.04Z"/>
      <path d="M129.93,262.62v.69c.34-.53,.88-.83,1.57-.83,1.36,0,1.93,.91,1.93,2.33v3.72h-1.58v-3.45c0-.63-.07-1.38-.87-1.38-.89,0-1.04,.79-1.04,1.69v3.14h-1.58v-5.92h1.58Z"/>
      <path d="M137.21,268.68c-1.01,0-2-.65-2-1.73,0-1.51,1.73-1.82,3.72-2.07v-.13c0-.91-.4-1.22-1.04-1.22s-1.06,.31-1.1,.96h-1.42c.11-1.17,1.07-2.02,2.57-2.02s2.51,.59,2.51,2.6c0,.19-.02,.98-.02,1.52,0,1.63,.07,1.78,.12,1.96h-1.44v-.76c-.43,.63-1.03,.9-1.89,.9Zm1.76-2.83c-1.53,.15-2.2,.33-2.2,1.03,0,.44,.3,.71,.87,.71,.99,0,1.33-.64,1.33-1.59v-.15Z"/>
      <path d="M142.65,268.54v-1.19h1.72v-5.61h-1.72v-1.18h3.3v6.79h1.72v1.19h-5.02Z"/>
    </g>
    <g>
      <path d="M51.6,300.47v4.96c0,1.16,.24,1.8,1.17,1.8s1.12-.75,1.12-1.93v-4.84h1.65v4.5c0,2.45-.58,3.62-2.77,3.62s-2.82-.92-2.82-3.55v-4.57h1.65Z"/>
      <path d="M58.87,302.52v.69c.34-.53,.88-.83,1.57-.83,1.36,0,1.93,.91,1.93,2.33v3.72h-1.58v-3.45c0-.63-.07-1.38-.87-1.38-.89,0-1.05,.79-1.05,1.69v3.14h-1.58v-5.92h1.58Z"/>
      <path d="M64.47,308.44v-1.19h1.72v-3.54h-1.72v-1.19h3.3v4.73h1.73v1.19h-5.03Zm3.3-7.98v1.46h-1.58v-1.46h1.58Z"/>
      <path d="M72.65,300.94h1.58v1.58h2.31v1.2h-2.31v2.86c0,.56,.19,.67,.65,.67h1.64v1.19h-2.22c-1.29,0-1.65-.43-1.65-1.61v-3.11h-1.72v-1.2h1.72v-1.58Z"/>
      <path d="M79.89,305.89c.06,1.09,.65,1.57,1.31,1.57s1-.32,1.12-.87h1.51c-.17,1-1.06,1.99-2.65,1.99-1.85,0-2.81-1.23-2.81-3.05s1.02-3.15,2.78-3.15,2.83,1.32,2.77,3.5h-4.04Zm0-1h2.53c-.03-1.08-.66-1.36-1.29-1.36-.51,0-1.16,.36-1.24,1.36Z"/>
      <path d="M89.38,300.47h1.57v7.98h-1.56v-.74c-.3,.55-.85,.88-1.53,.88-1.35,0-2.4-1.07-2.4-3.09s1.05-3.1,2.4-3.1c.68,0,1.23,.33,1.52,.88v-2.81Zm-1.17,3.09c-.75,0-1.17,.75-1.17,1.94s.42,1.92,1.17,1.92,1.22-.68,1.22-1.92-.46-1.94-1.22-1.94Z"/>
      <path d="M92.91,309.77v-1.33h4.93v1.33h-4.93Z"/>
      <path d="M101.44,303.47l2.17-3h1.93l-2.3,3.04,2.43,4.94h-1.88l-1.71-3.42-.64,.85v2.57h-1.65v-7.98h1.65v3Z"/>
      <path d="M107.1,308.44v-1.19h1.72v-3.54h-1.72v-1.19h3.3v4.73h1.73v1.19h-5.03Zm3.3-7.98v1.46h-1.58v-1.46h1.58Z"/>
      <path d="M115.72,302.52v.69c.34-.53,.88-.83,1.57-.83,1.36,0,1.93,.91,1.93,2.33v3.72h-1.58v-3.45c0-.63-.07-1.38-.87-1.38-.89,0-1.05,.79-1.05,1.69v3.14h-1.58v-5.92h1.58Z"/>
      <path d="M124.91,302.52h1.57v5.31c0,1.95-1.03,2.66-2.74,2.66-1.19,0-2.3-.47-2.49-1.9h1.45c.1,.51,.42,.77,1.04,.77,.79,0,1.16-.53,1.16-1.25v-.64c-.29,.54-.84,.87-1.52,.87-1.35,0-2.4-1.06-2.4-2.97s1.05-2.98,2.4-2.98c.68,0,1.23,.33,1.52,.88v-.75Zm-1.17,1.03c-.75,0-1.17,.75-1.17,1.82s.42,1.82,1.17,1.82,1.22-.68,1.22-1.82-.46-1.82-1.22-1.82Z"/>
      <path d="M132.02,300.47h1.57v7.98h-1.56v-.74c-.3,.55-.85,.88-1.53,.88-1.35,0-2.4-1.07-2.4-3.09s1.04-3.1,2.4-3.1c.68,0,1.23,.33,1.52,.88v-2.81Zm-1.17,3.09c-.75,0-1.17,.75-1.17,1.94s.42,1.92,1.17,1.92,1.22-.68,1.22-1.92-.46-1.94-1.22-1.94Z"/>
      <path d="M138.02,308.59c-1.45,0-2.83-.84-2.83-3.1s1.38-3.09,2.83-3.09,2.83,.83,2.83,3.09-1.39,3.1-2.83,3.1Zm0-5.03c-.76,0-1.24,.56-1.24,1.93s.48,1.94,1.24,1.94,1.24-.57,1.24-1.94-.48-1.93-1.24-1.93Z"/>
      <path d="M144.36,308.44v-3.96c0-.69-.04-.89-.32-.89-.32,0-.4,.31-.4,1.24v3.61h-1.54v-5.92h1.54v.45c.2-.34,.59-.58,1.02-.58,.46,0,.8,.23,.99,.66,.25-.46,.74-.66,1.1-.66,.78,0,1.33,.44,1.33,1.86v4.19h-1.54v-3.96c0-.69-.04-.89-.32-.89-.32,0-.4,.31-.4,1.24v3.61h-1.47Z"/>
    </g>
    <g>
      <path d="M53.28,334.15h2.38v7.98h-1.62v-3.63l.03-2.99h-.07l-.68,4.06h-1.17l-.67-4.06h-.08l.03,2.99v3.63h-1.62v-7.98h2.38l.54,3.38,.54-3.38Z"/>
      <path d="M59.05,342.27c-1.01,0-2-.65-2-1.73,0-1.51,1.73-1.82,3.72-2.07v-.13c0-.91-.4-1.22-1.05-1.22s-1.06,.31-1.1,.96h-1.42c.11-1.17,1.07-2.02,2.57-2.02s2.51,.59,2.51,2.6c0,.19-.02,.98-.02,1.52,0,1.63,.07,1.78,.12,1.96h-1.44v-.76c-.43,.63-1.03,.9-1.89,.9Zm1.76-2.83c-1.53,.15-2.2,.33-2.2,1.03,0,.44,.3,.71,.87,.71,.99,0,1.33-.64,1.33-1.59v-.15Z"/>
      <path d="M64.47,342.13v-1.19h1.72v-3.54h-1.72v-1.19h3.3v4.73h1.73v1.19h-5.03Zm3.3-7.98v1.46h-1.58v-1.46h1.58Z"/>
      <path d="M73.08,336.21v.69c.34-.53,.88-.83,1.57-.83,1.36,0,1.93,.91,1.93,2.33v3.72h-1.58v-3.45c0-.63-.07-1.38-.87-1.38-.89,0-1.05,.79-1.05,1.69v3.14h-1.58v-5.92h1.58Z"/>
      <path d="M78.7,343.46v-1.33h4.93v1.33h-4.93Z"/>
      <path d="M88.22,334.15c1.83,0,3.09,.59,3.09,2.45s-1.27,2.42-3.09,2.42h-.81v3.1h-1.65v-7.98h2.46Zm-.81,1.34v2.21h.77c.76,0,1.38-.25,1.38-1.1s-.62-1.11-1.38-1.11h-.77Z"/>
      <path d="M94.58,342.27c-1.01,0-2-.65-2-1.73,0-1.51,1.73-1.82,3.72-2.07v-.13c0-.91-.4-1.22-1.05-1.22s-1.06,.31-1.1,.96h-1.42c.11-1.17,1.07-2.02,2.57-2.02s2.51,.59,2.51,2.6c0,.19-.02,.98-.02,1.52,0,1.63,.07,1.78,.12,1.96h-1.44v-.76c-.43,.63-1.03,.9-1.89,.9Zm1.76-2.83c-1.53,.15-2.2,.33-2.2,1.03,0,.44,.3,.71,.87,.71,.99,0,1.33-.64,1.33-1.59v-.15Z"/>
      <path d="M103.6,336.21h1.57v5.31c0,1.95-1.03,2.66-2.74,2.66-1.19,0-2.3-.47-2.49-1.9h1.45c.1,.51,.42,.77,1.04,.77,.79,0,1.16-.53,1.16-1.25v-.64c-.29,.54-.84,.87-1.52,.87-1.35,0-2.4-1.06-2.4-2.97s1.05-2.98,2.4-2.98c.68,0,1.23,.33,1.52,.88v-.75Zm-1.17,1.03c-.75,0-1.17,.75-1.17,1.82s.42,1.82,1.17,1.82,1.22-.68,1.22-1.82-.46-1.82-1.22-1.82Z"/>
      <path d="M108.31,339.57c.06,1.09,.65,1.57,1.31,1.57s1-.32,1.12-.87h1.51c-.17,1-1.06,1.99-2.65,1.99-1.85,0-2.81-1.23-2.81-3.05s1.02-3.15,2.78-3.15,2.83,1.32,2.77,3.5h-4.04Zm0-1h2.53c-.03-1.08-.66-1.36-1.29-1.36-.51,0-1.16,.36-1.24,1.36Z"/>
    </g>
    <g>
      <path d="M43.76,57.62c-.74-.38-1.36-.9-1.85-1.56-.49-.66-.82-1.39-.98-2.18l2.31-1.45c.23,.94,.6,1.69,1.11,2.27,.51,.57,1.15,.86,1.95,.86,.6,0,1.09-.15,1.45-.45s.55-.76,.55-1.38c0-.38-.12-.72-.37-1.01-.25-.29-.56-.55-.94-.77-.37-.22-.91-.5-1.6-.84l-.64-.31c-.88-.44-1.58-.99-2.11-1.66-.53-.67-.79-1.52-.79-2.56,0-.78,.18-1.48,.54-2.11s.87-1.13,1.52-1.49c.65-.36,1.4-.54,2.23-.54,2.13,0,3.58,.93,4.36,2.79l-2.31,1.47c-.38-1.09-1.06-1.63-2.05-1.63-.43,0-.79,.14-1.1,.41-.31,.27-.46,.61-.46,1s.14,.75,.41,1.04c.27,.3,.6,.56,.99,.77s.95,.49,1.68,.83c.72,.34,1.32,.68,1.81,1.03,.49,.35,.89,.81,1.21,1.38s.47,1.25,.47,2.06c0,.92-.21,1.73-.63,2.43-.42,.7-1,1.23-1.75,1.61s-1.6,.56-2.55,.56-1.73-.19-2.48-.57Z"/>
      <path d="M55.45,57.45c-.85-.5-1.5-1.18-1.95-2.05-.45-.87-.67-1.84-.67-2.93s.22-2.06,.67-2.93c.45-.87,1.1-1.55,1.95-2.05,.85-.5,1.86-.75,3.01-.75s2.16,.25,3.01,.75c.85,.5,1.5,1.18,1.95,2.05,.45,.87,.67,1.84,.67,2.93s-.22,2.06-.67,2.93c-.45,.87-1.1,1.55-1.95,2.05-.85,.5-1.86,.75-3.01,.75s-2.16-.25-3.01-.75Zm5.04-2.56c.5-.65,.75-1.46,.75-2.41s-.25-1.76-.75-2.41c-.5-.65-1.17-.98-2.02-.98s-1.53,.33-2.02,.98c-.5,.65-.75,1.46-.75,2.41s.25,1.76,.75,2.41c.5,.65,1.17,.98,2.02,.98s1.52-.33,2.02-.98Z"/>
      <path d="M67.5,57.34c-.62-.57-.94-1.4-.94-2.49v-7.92h2.73v7.11c0,.63,.14,1.09,.43,1.39,.29,.29,.67,.44,1.16,.44,.45,0,.87-.18,1.25-.53,.38-.35,.69-.87,.92-1.55,.23-.68,.35-1.49,.35-2.43v-4.42h2.73v11.09h-2.73v-1.78c-.43,.6-.93,1.08-1.52,1.43-.59,.35-1.22,.53-1.91,.53-1.03,0-1.85-.29-2.48-.86Z"/>
      <path d="M81.94,46.93v1.8c.4-.63,.88-1.12,1.45-1.46,.57-.34,1.18-.52,1.83-.52,.41,0,.86,.07,1.34,.22l-.51,2.53c-.34-.21-.72-.31-1.14-.31-.87,0-1.58,.39-2.13,1.18-.56,.78-.84,2.02-.84,3.71v3.94h-2.73v-11.09h2.73Z"/>
      <path d="M89.72,57.44c-.81-.51-1.43-1.19-1.84-2.06-.41-.87-.62-1.83-.62-2.9s.21-2.04,.62-2.9c.41-.87,1.02-1.55,1.84-2.06s1.8-.76,2.96-.76c1.23,0,2.28,.27,3.14,.8,.86,.54,1.49,1.32,1.9,2.37l-2.44,.99c-.29-.6-.65-1.06-1.07-1.36-.42-.31-.93-.46-1.53-.46-.84,0-1.47,.31-1.9,.93-.43,.62-.65,1.44-.65,2.45s.22,1.83,.65,2.45c.43,.62,1.07,.93,1.9,.93,.6,0,1.11-.15,1.53-.46,.42-.31,.77-.76,1.07-1.36l2.44,.99c-.41,1.04-1.04,1.83-1.9,2.37-.86,.54-1.9,.8-3.14,.8-1.16,0-2.15-.25-2.96-.76Z"/>
      <path d="M109.93,53.36h-7.66c.12,.82,.41,1.45,.87,1.87,.46,.43,1.05,.64,1.77,.64,.62,0,1.13-.14,1.55-.42,.42-.28,.8-.71,1.13-1.3l2.2,.81c-.46,1.04-1.09,1.84-1.9,2.4-.81,.56-1.86,.84-3.13,.84-1.2,0-2.2-.28-3-.85-.8-.56-1.39-1.28-1.76-2.16-.37-.87-.56-1.78-.56-2.72s.19-1.84,.56-2.72c.37-.87,.96-1.59,1.76-2.16,.8-.56,1.8-.85,3-.85s2.13,.27,2.9,.82c.78,.55,1.35,1.24,1.72,2.08,.37,.84,.55,1.69,.55,2.57v1.12Zm-2.79-2.16c-.13-.62-.39-1.12-.78-1.52-.39-.4-.92-.59-1.59-.59-.59,0-1.09,.18-1.52,.54-.43,.36-.73,.88-.9,1.57h4.8Z"/>
      <path d="M123.87,42.62c1.57,0,2.76,.43,3.59,1.29,.82,.86,1.23,1.99,1.23,3.4s-.41,2.54-1.23,3.4c-.82,.86-2.02,1.29-3.59,1.29h-2.95v6.03h-2.86v-15.4h5.81Zm1.39,6.23c.35-.34,.53-.85,.53-1.54s-.18-1.2-.53-1.54c-.35-.34-.85-.51-1.5-.51h-2.84v4.09h2.84c.65,0,1.14-.17,1.5-.51Z"/>
      <path d="M130.76,57.32c-.63-.59-.95-1.42-.95-2.49s.42-1.98,1.25-2.64,1.97-.99,3.39-.99h1.94v-.48c0-.54-.18-.95-.55-1.22-.37-.27-.83-.41-1.39-.41-.95,0-1.59,.42-1.91,1.28l-2.31-.53c.18-.92,.65-1.67,1.42-2.23,.77-.56,1.71-.85,2.81-.85,1.48,0,2.63,.39,3.44,1.18,.81,.79,1.22,1.94,1.22,3.46v6.62h-2.24l-.29-1.41c-.87,1.06-2,1.58-3.41,1.58-.98,0-1.79-.29-2.42-.88Zm4.88-2.08c.5-.42,.75-.97,.75-1.66v-.22h-1.83c-.6,0-1.07,.12-1.4,.35-.33,.23-.5,.59-.5,1.08,0,.32,.11,.58,.34,.78s.52,.3,.89,.3c.66,0,1.24-.21,1.74-.63Z"/>
      <path d="M142.45,61.74c-.93-.63-1.4-1.53-1.4-2.71,0-.91,.3-1.64,.9-2.2-.38-.45-.57-1.03-.57-1.72,0-.51,.12-.97,.36-1.36,.24-.4,.58-.72,1-.97-.51-.63-.77-1.39-.77-2.29,0-.75,.18-1.4,.54-1.97,.36-.56,.85-1,1.47-1.31,.62-.31,1.31-.46,2.06-.46s1.4,.16,2.05,.48l2.09-1.1,1.08,1.8-1.58,.79c.29,.51,.44,1.1,.44,1.76,0,.75-.18,1.41-.54,1.97s-.85,.99-1.47,1.29c-.62,.29-1.31,.44-2.06,.44-.56,0-1.09-.08-1.61-.24-.35,.21-.53,.48-.53,.84,0,.26,.09,.47,.26,.61,.18,.14,.43,.21,.77,.21h2.27c1.19,0,2.13,.28,2.84,.85,.7,.57,1.06,1.37,1.06,2.41,0,.87-.24,1.58-.71,2.16-.48,.57-1.1,.99-1.86,1.26s-1.58,.41-2.46,.41c-1.48,0-2.69-.32-3.62-.95Zm5.3-1.67c.42-.22,.63-.56,.63-1.03,0-.42-.15-.72-.46-.89-.31-.17-.75-.25-1.32-.25h-1.5c-.5,0-.92-.03-1.28-.09-.16,.25-.24,.59-.24,1.01,0,.51,.23,.91,.68,1.18,.46,.27,1.06,.41,1.8,.41,.7,0,1.26-.11,1.68-.33Zm-.62-8.49c.29-.28,.43-.64,.43-1.08s-.14-.82-.43-1.11-.65-.43-1.09-.43-.8,.14-1.09,.43-.43,.66-.43,1.11,.14,.8,.43,1.08c.29,.28,.65,.42,1.09,.42s.8-.14,1.09-.42Z"/>
      <path d="M162.81,53.36h-7.66c.12,.82,.41,1.45,.87,1.87,.46,.43,1.05,.64,1.77,.64,.62,0,1.13-.14,1.55-.42,.42-.28,.79-.71,1.13-1.3l2.2,.81c-.46,1.04-1.09,1.84-1.9,2.4-.81,.56-1.86,.84-3.13,.84-1.2,0-2.2-.28-3-.85-.8-.56-1.39-1.28-1.76-2.16-.37-.87-.56-1.78-.56-2.72s.19-1.84,.56-2.72c.37-.87,.96-1.59,1.76-2.16,.8-.56,1.8-.85,3-.85s2.13,.27,2.9,.82c.78,.55,1.35,1.24,1.72,2.08,.37,.84,.55,1.69,.55,2.57v1.12Zm-2.79-2.16c-.13-.62-.39-1.12-.78-1.52-.39-.4-.92-.59-1.59-.59-.59,0-1.09,.18-1.52,.54-.43,.36-.73,.88-.9,1.57h4.8Z"/>
    </g>
    <g>
      <rect class="cls-5" x="40" y="360.95" width="120" height="13"/>
      <path class="cls-8" d="M160.5,374.45H39.5v-14h121v14Zm-120-1h119v-12H40.5v12Z"/>
    </g>
    <g>
      <path d="M50.37,363.06h4.83v1.42h-3.18v1.77h2.96v1.42h-2.96v1.95h3.18v1.42h-4.83v-7.98Z"/>
      <path d="M58.87,365.12v.69c.34-.53,.88-.83,1.57-.83,1.36,0,1.93,.91,1.93,2.33v3.72h-1.58v-3.45c0-.63-.07-1.38-.87-1.38-.89,0-1.05,.79-1.05,1.69v3.14h-1.58v-5.92h1.58Z"/>
      <path d="M68.07,365.12h1.57v5.31c0,1.95-1.03,2.66-2.74,2.66-1.19,0-2.3-.47-2.49-1.9h1.45c.1,.51,.42,.77,1.04,.77,.79,0,1.16-.53,1.16-1.25v-.64c-.29,.54-.84,.87-1.52,.87-1.35,0-2.4-1.06-2.4-2.97s1.05-2.98,2.4-2.98c.68,0,1.23,.33,1.52,.88v-.75Zm-1.17,1.03c-.75,0-1.17,.75-1.17,1.82s.42,1.82,1.17,1.82,1.22-.68,1.22-1.82-.46-1.82-1.22-1.82Z"/>
      <path d="M71.59,371.04v-1.19h1.72v-5.61h-1.72v-1.18h3.3v6.79h1.72v1.19h-5.02Z"/>
      <path d="M80.36,371.18c-1.01,0-2-.65-2-1.73,0-1.51,1.73-1.82,3.72-2.07v-.13c0-.91-.4-1.22-1.05-1.22s-1.06,.31-1.1,.96h-1.42c.11-1.17,1.07-2.02,2.57-2.02s2.51,.59,2.51,2.6c0,.19-.02,.98-.02,1.52,0,1.63,.07,1.78,.12,1.96h-1.44v-.76c-.43,.63-1.03,.9-1.89,.9Zm1.76-2.83c-1.53,.15-2.2,.33-2.2,1.03,0,.44,.3,.71,.87,.71,.99,0,1.33-.64,1.33-1.59v-.15Z"/>
      <path d="M87.29,365.12v.69c.34-.53,.88-.83,1.57-.83,1.36,0,1.93,.91,1.93,2.33v3.72h-1.58v-3.45c0-.63-.07-1.38-.87-1.38-.89,0-1.05,.79-1.05,1.69v3.14h-1.58v-5.92h1.58Z"/>
      <path d="M96.49,363.06h1.57v7.98h-1.56v-.74c-.3,.55-.85,.88-1.53,.88-1.35,0-2.4-1.07-2.4-3.09s1.05-3.1,2.4-3.1c.68,0,1.23,.33,1.52,.88v-2.81Zm-1.17,3.09c-.75,0-1.17,.75-1.17,1.94s.42,1.92,1.17,1.92,1.22-.68,1.22-1.92-.46-1.94-1.22-1.94Z"/>
    </g>
    <g>
      <rect class="cls-8" x="480" y="77.88" width="120" height="280"/>
      <path class="cls-8" d="M600.5,358.38h-121V77.38h121V358.38Zm-120-1h119V78.38h-119V357.38Z"/>
    </g>
    <g>
      <path class="cls-2" d="M521.78,218.46h3.72v1.42h-5.37v-7.98h1.65v6.56Z"/>
      <path class="cls-2" d="M529.64,220.02c-1.45,0-2.83-.84-2.83-3.1s1.38-3.09,2.83-3.09,2.83,.83,2.83,3.09-1.39,3.1-2.83,3.1Zm0-5.03c-.76,0-1.24,.56-1.24,1.93s.48,1.94,1.24,1.94,1.24-.57,1.24-1.94-.48-1.93-1.24-1.93Z"/>
      <path class="cls-2" d="M535.76,213.96v.69c.34-.53,.88-.83,1.57-.83,1.36,0,1.93,.91,1.93,2.33v3.72h-1.58v-3.45c0-.63-.07-1.38-.87-1.38-.89,0-1.05,.79-1.05,1.69v3.14h-1.58v-5.92h1.58Z"/>
      <path class="cls-2" d="M544.96,211.9h1.57v7.98h-1.56v-.74c-.3,.55-.85,.88-1.53,.88-1.35,0-2.4-1.07-2.4-3.09s1.04-3.1,2.4-3.1c.68,0,1.23,.33,1.52,.88v-2.81Zm-1.17,3.09c-.75,0-1.17,.75-1.17,1.94s.42,1.92,1.17,1.92,1.22-.68,1.22-1.92-.46-1.94-1.22-1.94Z"/>
      <path class="cls-2" d="M550.95,220.02c-1.45,0-2.83-.84-2.83-3.1s1.38-3.09,2.83-3.09,2.83,.83,2.83,3.09-1.39,3.1-2.83,3.1Zm0-5.03c-.76,0-1.24,.56-1.24,1.93s.48,1.94,1.24,1.94,1.24-.57,1.24-1.94-.48-1.93-1.24-1.93Z"/>
      <path class="cls-2" d="M557.08,213.96v.69c.34-.53,.88-.83,1.57-.83,1.36,0,1.92,.91,1.92,2.33v3.72h-1.58v-3.45c0-.63-.07-1.38-.87-1.38-.89,0-1.04,.79-1.04,1.69v3.14h-1.58v-5.92h1.58Z"/>
    </g>
    <g>
      <rect class="cls-9" x="40.56" y="418.91" width="139.47" height="30"/>
      <path class="cls-8" d="M180.53,449.41H40.06v-31H180.53v31Zm-139.47-1H179.53v-29H41.06v29Z"/>
    </g>
    <g>
      <rect class="cls-9" x="180.03" y="418.91" width="139.47" height="30"/>
      <path class="cls-8" d="M320,449.41H179.53v-31h140.47v31Zm-139.47-1h138.47v-29H180.53v29Z"/>
    </g>
    <g>
      <rect class="cls-9" x="319.5" y="418.91" width="139.47" height="30"/>
      <path class="cls-8" d="M459.47,449.41h-140.47v-31h140.47v31Zm-139.47-1h138.47v-29h-138.47v29Z"/>
    </g>
    <g>
      <rect class="cls-9" x="458.97" y="418.91" width="139.47" height="30"/>
      <path class="cls-8" d="M598.94,449.41h-140.47v-31h140.47v31Zm-139.47-1h138.47v-29h-138.47v29Z"/>
    </g>
    <g>
      <path class="cls-2" d="M74.25,434.58c-.11-.52-.53-.74-1.21-.74-.48,0-.87,.2-.87,.52s.34,.53,.77,.64l.65,.15c1.17,.28,2.09,.59,2.09,1.77,0,1.25-1.14,1.96-2.46,1.96-1.41,0-2.41-.78-2.55-2.13h1.4c.07,.61,.5,.97,1.22,.97,.59,0,.96-.21,.96-.6s-.42-.57-.91-.69l-.7-.17c-1.08-.25-1.82-.74-1.82-1.78,0-1.14,1.03-1.78,2.32-1.78,1.09,0,2.28,.54,2.49,1.89h-1.36Z"/>
      <path class="cls-2" d="M80.3,438.88c-1.45,0-2.83-.84-2.83-3.1s1.38-3.09,2.83-3.09,2.83,.83,2.83,3.09-1.39,3.1-2.83,3.1Zm0-5.03c-.76,0-1.24,.56-1.24,1.93s.48,1.94,1.24,1.94,1.24-.57,1.24-1.94-.48-1.93-1.24-1.93Z"/>
      <path class="cls-2" d="M88.38,438.09c-.34,.54-.88,.79-1.51,.79-1.43,0-1.99-.91-1.99-2.33v-3.73h1.58v3.47c0,.63,.07,1.38,.87,1.38,.88,0,1.05-.79,1.05-1.69v-3.15h1.58v5.92h-1.58v-.65Z"/>
      <path class="cls-2" d="M94.82,432.82v1c.24-.51,.7-1,1.64-1h.9v1.27h-1.13c-1,0-1.39,.47-1.39,1.63v1.84h2.15v1.19h-5.2v-1.19h1.47v-3.53h-1.47v-1.2h3.04Z"/>
      <path class="cls-2" d="M104.23,434.95h-1.5c-.09-.63-.38-1.1-1.09-1.1s-1.14,.61-1.14,1.94,.44,1.92,1.14,1.92c.48,0,.98-.24,1.12-1.14h1.52c-.21,1.61-1.47,2.31-2.66,2.31-1.73,0-2.71-1.3-2.71-3.09s1-3.1,2.74-3.1c1.16,0,2.4,.69,2.57,2.27Z"/>
      <path class="cls-2" d="M107.45,436.18c.06,1.09,.65,1.57,1.31,1.57s1-.32,1.12-.87h1.51c-.17,1-1.06,1.99-2.65,1.99-1.85,0-2.81-1.23-2.81-3.05s1.02-3.15,2.78-3.15,2.83,1.32,2.77,3.5h-4.04Zm0-1h2.53c-.03-1.08-.66-1.36-1.29-1.36-.51,0-1.16,.36-1.24,1.36Z"/>
      <path class="cls-2" d="M113.37,440.07v-1.33h4.93v1.33h-4.93Z"/>
      <path class="cls-2" d="M121.84,433.57c.29-.55,.83-.88,1.52-.88,1.35,0,2.4,1.08,2.4,3.1s-1.05,3.09-2.4,3.09c-.69,0-1.23-.33-1.52-.88v2.66h-1.58v-7.84h1.58v.75Zm1.17,4.15c.74,0,1.17-.74,1.17-1.92s-.43-1.94-1.17-1.94-1.22,.69-1.22,1.94,.46,1.92,1.22,1.92Z"/>
      <path class="cls-2" d="M129.24,438.88c-1.01,0-2-.65-2-1.73,0-1.51,1.73-1.82,3.72-2.07v-.13c0-.91-.4-1.22-1.05-1.22s-1.06,.31-1.1,.96h-1.42c.11-1.17,1.07-2.02,2.57-2.02s2.51,.59,2.51,2.6c0,.19-.02,.98-.02,1.52,0,1.63,.07,1.78,.12,1.96h-1.44v-.76c-.43,.63-1.03,.9-1.89,.9Zm1.76-2.83c-1.53,.15-2.2,.33-2.2,1.03,0,.44,.3,.71,.87,.71,.99,0,1.33-.64,1.33-1.59v-.15Z"/>
      <path class="cls-2" d="M138.27,432.82h1.57v5.31c0,1.95-1.03,2.66-2.74,2.66-1.19,0-2.3-.47-2.49-1.9h1.45c.1,.51,.42,.77,1.04,.77,.79,0,1.16-.53,1.16-1.25v-.64c-.29,.54-.84,.87-1.52,.87-1.35,0-2.4-1.06-2.4-2.97s1.05-2.98,2.4-2.98c.68,0,1.23,.33,1.52,.88v-.75Zm-1.17,1.03c-.75,0-1.17,.75-1.17,1.82s.42,1.82,1.17,1.82,1.22-.68,1.22-1.82-.46-1.82-1.22-1.82Z"/>
      <path class="cls-2" d="M142.99,436.18c.06,1.09,.65,1.57,1.31,1.57s1-.32,1.12-.87h1.51c-.17,1-1.06,1.99-2.65,1.99-1.85,0-2.81-1.23-2.81-3.05s1.02-3.15,2.78-3.15,2.83,1.32,2.77,3.5h-4.04Zm0-1h2.53c-.03-1.08-.66-1.36-1.29-1.36-.51,0-1.16,.36-1.24,1.36Z"/>
    </g>
    <g>
      <path class="cls-2" d="M213.8,431.24h1.58v1.58h2.31v1.2h-2.31v2.86c0,.56,.19,.67,.65,.67h1.64v1.19h-2.22c-1.29,0-1.65-.43-1.65-1.61v-3.11h-1.72v-1.2h1.72v-1.58Z"/>
      <path class="cls-2" d="M221.51,438.88c-1.01,0-2-.65-2-1.73,0-1.51,1.73-1.82,3.72-2.07v-.13c0-.91-.4-1.22-1.05-1.22s-1.06,.31-1.1,.96h-1.42c.11-1.17,1.07-2.02,2.57-2.02s2.51,.59,2.51,2.6c0,.19-.02,.98-.02,1.52,0,1.63,.07,1.78,.12,1.96h-1.44v-.76c-.43,.63-1.03,.9-1.89,.9Zm1.76-2.83c-1.53,.15-2.2,.33-2.2,1.03,0,.44,.3,.71,.87,.71,.99,0,1.33-.64,1.33-1.59v-.15Z"/>
      <path class="cls-2" d="M229.73,432.82v1c.24-.51,.7-1,1.64-1h.9v1.27h-1.13c-1,0-1.39,.47-1.39,1.63v1.84h2.15v1.19h-5.2v-1.19h1.47v-3.53h-1.47v-1.2h3.04Z"/>
      <path class="cls-2" d="M237.64,432.82h1.57v5.31c0,1.95-1.03,2.66-2.74,2.66-1.19,0-2.3-.47-2.49-1.9h1.45c.1,.51,.42,.77,1.04,.77,.79,0,1.16-.53,1.16-1.25v-.64c-.29,.54-.84,.87-1.52,.87-1.35,0-2.4-1.06-2.4-2.97s1.05-2.98,2.4-2.98c.68,0,1.23,.33,1.52,.88v-.75Zm-1.17,1.03c-.75,0-1.17,.75-1.17,1.82s.42,1.82,1.17,1.82,1.22-.68,1.22-1.82-.46-1.82-1.22-1.82Z"/>
      <path class="cls-2" d="M242.36,436.19c.06,1.09,.65,1.57,1.31,1.57s1-.32,1.12-.87h1.51c-.17,1-1.06,1.99-2.65,1.99-1.85,0-2.81-1.23-2.81-3.05s1.02-3.15,2.78-3.15,2.83,1.32,2.77,3.5h-4.04Zm0-1h2.53c-.03-1.08-.66-1.36-1.29-1.36-.51,0-1.16,.36-1.24,1.36Z"/>
      <path class="cls-2" d="M249.34,431.24h1.58v1.58h2.31v1.2h-2.31v2.86c0,.56,.19,.67,.65,.67h1.64v1.19h-2.22c-1.29,0-1.65-.43-1.65-1.61v-3.11h-1.72v-1.2h1.72v-1.58Z"/>
      <path class="cls-2" d="M255.39,440.07v-1.33h4.93v1.33h-4.93Z"/>
      <path class="cls-2" d="M263.86,433.57c.29-.55,.83-.88,1.52-.88,1.35,0,2.4,1.08,2.4,3.1s-1.05,3.09-2.4,3.09c-.69,0-1.23-.33-1.52-.88v2.66h-1.58v-7.84h1.58v.75Zm1.17,4.15c.74,0,1.17-.74,1.17-1.92s-.43-1.94-1.17-1.94-1.22,.69-1.22,1.94,.46,1.92,1.22,1.92Z"/>
      <path class="cls-2" d="M271.27,438.88c-1.01,0-2-.65-2-1.73,0-1.51,1.73-1.82,3.72-2.07v-.13c0-.91-.4-1.22-1.05-1.22s-1.06,.31-1.1,.96h-1.42c.11-1.17,1.07-2.02,2.57-2.02s2.51,.59,2.51,2.6c0,.19-.02,.98-.02,1.52,0,1.63,.07,1.78,.12,1.96h-1.44v-.76c-.43,.63-1.03,.9-1.89,.9Zm1.76-2.83c-1.53,.15-2.2,.33-2.2,1.03,0,.44,.3,.71,.87,.71,.99,0,1.33-.64,1.33-1.59v-.15Z"/>
      <path class="cls-2" d="M280.29,432.82h1.57v5.31c0,1.95-1.03,2.66-2.74,2.66-1.19,0-2.3-.47-2.49-1.9h1.45c.1,.51,.42,.77,1.04,.77,.79,0,1.16-.53,1.16-1.25v-.64c-.29,.54-.84,.87-1.52,.87-1.35,0-2.4-1.06-2.4-2.97s1.05-2.98,2.4-2.98c.68,0,1.23,.33,1.52,.88v-.75Zm-1.17,1.03c-.75,0-1.17,.75-1.17,1.82s.42,1.82,1.17,1.82,1.22-.68,1.22-1.82-.46-1.82-1.22-1.82Z"/>
      <path class="cls-2" d="M285.01,436.19c.06,1.09,.65,1.57,1.31,1.57s1-.32,1.12-.87h1.51c-.17,1-1.06,1.99-2.65,1.99-1.85,0-2.81-1.23-2.81-3.05s1.02-3.15,2.78-3.15,2.83,1.32,2.77,3.5h-4.04Zm0-1h2.53c-.03-1.08-.66-1.36-1.29-1.36-.51,0-1.16,.36-1.24,1.36Z"/>
    </g>
    <g>
      <path class="cls-2" d="M343.51,438.74v-1.19h1.72v-5.61h-1.72v-1.18h3.3v6.79h1.72v1.19h-5.02Z"/>
      <path class="cls-2" d="M350.61,438.74v-1.19h1.72v-3.54h-1.72v-1.19h3.3v4.73h1.73v1.19h-5.03Zm3.3-7.98v1.46h-1.58v-1.46h1.58Z"/>
      <path class="cls-2" d="M359.22,432.82v.69c.34-.53,.88-.83,1.57-.83,1.36,0,1.93,.91,1.93,2.33v3.72h-1.58v-3.45c0-.63-.07-1.38-.87-1.38-.89,0-1.04,.79-1.04,1.69v3.14h-1.58v-5.92h1.58Z"/>
      <path class="cls-2" d="M366.35,437.08v1.66h-1.58v-7.98h1.58v4.35l1.95-2.29h1.76l-2.01,2.3,2.13,3.62h-1.75l-1.41-2.43-.67,.77Z"/>
      <path class="cls-2" d="M371.95,440.07v-1.33h4.93v1.33h-4.93Z"/>
      <path class="cls-2" d="M384.13,434.95h-1.5c-.09-.63-.39-1.1-1.09-1.1s-1.14,.61-1.14,1.94,.44,1.92,1.14,1.92c.48,0,.98-.24,1.12-1.14h1.52c-.21,1.61-1.47,2.31-2.66,2.31-1.73,0-2.71-1.3-2.71-3.09s1-3.1,2.74-3.1c1.15,0,2.4,.69,2.57,2.27Z"/>
      <path class="cls-2" d="M387.83,438.88c-1.01,0-2-.65-2-1.73,0-1.51,1.73-1.82,3.72-2.07v-.13c0-.91-.4-1.22-1.04-1.22s-1.06,.31-1.1,.96h-1.42c.11-1.17,1.07-2.02,2.57-2.02s2.51,.59,2.51,2.6c0,.19-.02,.98-.02,1.52,0,1.63,.07,1.78,.12,1.96h-1.44v-.76c-.43,.63-1.03,.9-1.89,.9Zm1.76-2.83c-1.53,.15-2.2,.33-2.2,1.03,0,.44,.3,.71,.87,.71,.99,0,1.33-.64,1.33-1.59v-.15Z"/>
      <path class="cls-2" d="M394.33,431.24h1.58v1.58h2.31v1.2h-2.31v2.86c0,.56,.19,.67,.65,.67h1.64v1.19h-2.22c-1.29,0-1.65-.43-1.65-1.61v-3.11h-1.72v-1.2h1.72v-1.58Z"/>
      <path class="cls-2" d="M401.57,436.19c.05,1.09,.65,1.57,1.31,1.57s1-.32,1.12-.87h1.51c-.17,1-1.06,1.99-2.65,1.99-1.85,0-2.81-1.23-2.81-3.05s1.02-3.15,2.78-3.15,2.83,1.32,2.77,3.5h-4.04Zm0-1h2.53c-.03-1.08-.66-1.36-1.29-1.36-.51,0-1.16,.36-1.24,1.36Z"/>
      <path class="cls-2" d="M411.07,432.82h1.57v5.31c0,1.95-1.03,2.66-2.74,2.66-1.19,0-2.3-.47-2.49-1.9h1.45c.1,.51,.42,.77,1.04,.77,.79,0,1.16-.53,1.16-1.25v-.64c-.29,.54-.84,.87-1.52,.87-1.35,0-2.4-1.06-2.4-2.97s1.04-2.98,2.4-2.98c.68,0,1.23,.33,1.52,.88v-.75Zm-1.17,1.03c-.75,0-1.17,.75-1.17,1.82s.42,1.82,1.17,1.82,1.22-.68,1.22-1.82-.46-1.82-1.22-1.82Z"/>
      <path class="cls-2" d="M417.06,438.88c-1.45,0-2.83-.84-2.83-3.1s1.38-3.09,2.83-3.09,2.83,.83,2.83,3.09-1.39,3.1-2.83,3.1Zm0-5.03c-.76,0-1.24,.56-1.24,1.93s.48,1.94,1.24,1.94,1.24-.57,1.24-1.94-.48-1.93-1.24-1.93Z"/>
      <path class="cls-2" d="M424.48,432.82v1c.24-.51,.7-1,1.64-1h.9v1.27h-1.13c-1,0-1.39,.47-1.39,1.63v1.84h2.15v1.19h-5.2v-1.19h1.47v-3.53h-1.47v-1.2h3.04Z"/>
      <path class="cls-2" d="M432.12,438.54c-.7,1.82-.95,2.12-2.32,2.12h-1.26v-1.18h1.17c.45,0,.56-.1,.78-.61l.05-.14-2.28-5.92h1.64l1.44,4.04,1.39-4.04h1.56l-2.17,5.72Z"/>
    </g>
    <g>
      <path class="cls-2" d="M495.25,434.95h-1.5c-.09-.63-.39-1.1-1.09-1.1s-1.14,.61-1.14,1.94,.44,1.92,1.14,1.92c.48,0,.98-.24,1.12-1.14h1.52c-.21,1.61-1.47,2.31-2.66,2.31-1.73,0-2.71-1.3-2.71-3.09s1-3.1,2.74-3.1c1.15,0,2.4,.69,2.57,2.27Z"/>
      <path class="cls-2" d="M497.27,438.74v-1.19h1.72v-5.61h-1.72v-1.18h3.3v6.79h1.72v1.19h-5.02Z"/>
      <path class="cls-2" d="M504.37,438.74v-1.19h1.72v-3.54h-1.72v-1.19h3.3v4.73h1.73v1.19h-5.03Zm3.3-7.98v1.46h-1.58v-1.46h1.58Z"/>
      <path class="cls-2" d="M516.57,434.95h-1.5c-.09-.63-.39-1.1-1.09-1.1s-1.14,.61-1.14,1.94,.44,1.92,1.14,1.92c.48,0,.98-.24,1.12-1.14h1.52c-.21,1.61-1.47,2.31-2.66,2.31-1.73,0-2.71-1.3-2.71-3.09s1-3.1,2.74-3.1c1.15,0,2.4,.69,2.57,2.27Z"/>
      <path class="cls-2" d="M520.11,437.08v1.66h-1.58v-7.98h1.58v4.35l1.95-2.29h1.76l-2.01,2.3,2.13,3.62h-1.75l-1.41-2.43-.67,.77Z"/>
      <path class="cls-2" d="M537.89,434.95h-1.5c-.09-.63-.39-1.1-1.09-1.1s-1.14,.61-1.14,1.94,.44,1.92,1.14,1.92c.48,0,.98-.24,1.12-1.14h1.52c-.21,1.61-1.47,2.31-2.66,2.31-1.73,0-2.71-1.3-2.71-3.09s1-3.1,2.74-3.1c1.15,0,2.4,.69,2.57,2.27Z"/>
      <path class="cls-2" d="M542.39,438.88c-1.45,0-2.83-.84-2.83-3.1s1.38-3.09,2.83-3.09,2.83,.83,2.83,3.09-1.39,3.1-2.83,3.1Zm0-5.03c-.76,0-1.24,.56-1.24,1.93s.48,1.94,1.24,1.94,1.24-.57,1.24-1.94-.48-1.93-1.24-1.93Z"/>
      <path class="cls-2" d="M550.48,438.09c-.34,.54-.88,.79-1.51,.79-1.43,0-1.99-.91-1.99-2.33v-3.73h1.58v3.47c0,.63,.07,1.38,.87,1.38,.88,0,1.04-.79,1.04-1.69v-3.15h1.58v5.92h-1.58v-.65Z"/>
      <path class="cls-2" d="M555.63,432.82v.69c.34-.53,.88-.83,1.57-.83,1.36,0,1.93,.91,1.93,2.33v3.72h-1.58v-3.45c0-.63-.07-1.38-.87-1.38-.89,0-1.04,.79-1.04,1.69v3.14h-1.58v-5.92h1.58Z"/>
      <path class="cls-2" d="M562.3,431.24h1.58v1.58h2.31v1.2h-2.31v2.86c0,.56,.19,.67,.65,.67h1.64v1.19h-2.22c-1.29,0-1.65-.43-1.65-1.61v-3.11h-1.72v-1.2h1.72v-1.58Z"/>
    </g>
    <g>
      <rect class="cls-1" x="40.56" y="448.91" width="139.47" height="30"/>
      <path class="cls-8" d="M180.53,479.41H40.06v-31H180.53v31Zm-139.47-1H179.53v-29H41.06v29Z"/>
    </g>
    <g>
      <rect class="cls-2" x="180.03" y="448.91" width="139.47" height="30"/>
      <path class="cls-8" d="M320,479.41H179.53v-31h140.47v31Zm-139.47-1h138.47v-29H180.53v29Z"/>
    </g>
    <g>
      <rect class="cls-2" x="319.5" y="448.91" width="139.47" height="30"/>
      <path class="cls-8" d="M459.47,479.41h-140.47v-31h140.47v31Zm-139.47-1h138.47v-29h-138.47v29Z"/>
    </g>
    <g>
      <rect class="cls-2" x="458.97" y="448.91" width="139.47" height="30"/>
      <path class="cls-8" d="M598.94,479.41h-140.47v-31h140.47v31Zm-139.47-1h138.47v-29h-138.47v29Z"/>
    </g>
    <g>
      <path d="M70.05,468.88c-1.45,0-2.83-.84-2.83-3.1s1.38-3.09,2.83-3.09,2.83,.83,2.83,3.09-1.39,3.1-2.83,3.1Zm0-5.03c-.76,0-1.24,.56-1.24,1.93s.48,1.94,1.24,1.94,1.24-.57,1.24-1.94-.48-1.93-1.24-1.93Z"/>
      <path d="M75.74,461.23h1.58v1.58h2.31v1.2h-2.31v2.86c0,.56,.19,.67,.65,.67h1.64v1.19h-2.22c-1.29,0-1.65-.43-1.65-1.61v-3.11h-1.72v-1.2h1.72v-1.58Z"/>
      <path d="M83.28,460.76v2.75c.34-.53,.89-.83,1.58-.83,1.36,0,1.91,.91,1.91,2.33v3.72h-1.58v-3.45c0-.63-.06-1.38-.86-1.38-.89,0-1.06,.79-1.06,1.69v3.14h-1.58v-7.98h1.58Z"/>
      <path d="M90.09,466.18c.06,1.09,.65,1.57,1.31,1.57s1-.32,1.12-.87h1.51c-.17,1-1.06,1.99-2.65,1.99-1.85,0-2.81-1.23-2.81-3.05s1.02-3.15,2.78-3.15,2.83,1.32,2.77,3.5h-4.04Zm0-1h2.53c-.03-1.08-.66-1.36-1.29-1.36-.51,0-1.16,.36-1.24,1.36Z"/>
      <path d="M98.78,462.82v1c.24-.51,.7-1,1.64-1h.9v1.27h-1.13c-1,0-1.39,.47-1.39,1.63v1.84h2.15v1.19h-5.2v-1.19h1.47v-3.53h-1.47v-1.2h3.04Z"/>
      <path d="M103.63,466.58v-1.53h3.89v1.53h-3.89Z"/>
      <path d="M113.74,464.58c-.11-.52-.53-.74-1.21-.74-.48,0-.87,.2-.87,.52s.34,.53,.77,.64l.65,.15c1.17,.28,2.09,.59,2.09,1.77,0,1.25-1.14,1.96-2.46,1.96-1.41,0-2.41-.78-2.55-2.13h1.4c.07,.61,.5,.97,1.22,.97,.59,0,.96-.21,.96-.6s-.42-.57-.91-.69l-.7-.17c-1.08-.25-1.82-.74-1.82-1.78,0-1.14,1.03-1.78,2.32-1.78,1.09,0,2.28,.54,2.49,1.89h-1.36Z"/>
      <path d="M118.51,466.18c.06,1.09,.65,1.57,1.31,1.57s1-.32,1.12-.87h1.51c-.17,1-1.06,1.99-2.65,1.99-1.85,0-2.81-1.23-2.81-3.05s1.02-3.15,2.78-3.15,2.83,1.32,2.77,3.5h-4.04Zm0-1h2.53c-.03-1.08-.66-1.36-1.29-1.36-.51,0-1.16,.36-1.24,1.36Z"/>
      <path d="M126.09,468.88c-1.01,0-2-.65-2-1.73,0-1.51,1.73-1.82,3.72-2.07v-.13c0-.91-.4-1.22-1.05-1.22s-1.06,.31-1.1,.96h-1.42c.11-1.17,1.07-2.02,2.57-2.02s2.51,.59,2.51,2.6c0,.19-.02,.98-.02,1.52,0,1.63,.07,1.78,.12,1.96h-1.44v-.76c-.43,.63-1.03,.9-1.89,.9Zm1.76-2.83c-1.53,.15-2.2,.33-2.2,1.03,0,.44,.3,.71,.87,.71,.99,0,1.33-.64,1.33-1.59v-.15Z"/>
      <path d="M134.31,462.82v1c.24-.51,.7-1,1.64-1h.9v1.27h-1.13c-1,0-1.39,.47-1.39,1.63v1.84h2.15v1.19h-5.2v-1.19h1.47v-3.53h-1.47v-1.2h3.04Z"/>
      <path d="M143.71,464.95h-1.5c-.09-.63-.38-1.1-1.09-1.1s-1.14,.61-1.14,1.94,.44,1.92,1.14,1.92c.48,0,.98-.24,1.12-1.14h1.52c-.21,1.61-1.47,2.31-2.66,2.31-1.73,0-2.71-1.3-2.71-3.09s1-3.1,2.74-3.1c1.16,0,2.4,.69,2.57,2.27Z"/>
      <path d="M147.23,460.76v2.75c.34-.53,.89-.83,1.58-.83,1.36,0,1.91,.91,1.91,2.33v3.72h-1.58v-3.45c0-.63-.06-1.38-.86-1.38-.89,0-1.06,.79-1.06,1.69v3.14h-1.58v-7.98h1.58Z"/>
    </g>
    <g>
      <path d="M230.56,467.32h3.72v1.42h-5.37v-7.98h1.65v6.56Z"/>
      <path d="M238.41,468.88c-1.45,0-2.83-.84-2.83-3.1s1.38-3.09,2.83-3.09,2.83,.83,2.83,3.09-1.39,3.1-2.83,3.1Zm0-5.03c-.76,0-1.24,.56-1.24,1.93s.48,1.94,1.24,1.94,1.24-.57,1.24-1.94-.48-1.93-1.24-1.93Z"/>
      <path d="M244.54,462.82v.69c.34-.53,.88-.83,1.57-.83,1.36,0,1.93,.91,1.93,2.33v3.72h-1.58v-3.45c0-.63-.07-1.38-.87-1.38-.89,0-1.05,.79-1.05,1.69v3.14h-1.58v-5.92h1.58Z"/>
      <path d="M253.74,460.76h1.57v7.98h-1.56v-.74c-.3,.55-.85,.88-1.53,.88-1.35,0-2.4-1.07-2.4-3.09s1.05-3.1,2.4-3.1c.68,0,1.23,.33,1.52,.88v-2.81Zm-1.17,3.09c-.75,0-1.17,.75-1.17,1.94s.42,1.92,1.17,1.92,1.22-.68,1.22-1.92-.46-1.94-1.22-1.94Z"/>
      <path d="M259.73,468.88c-1.45,0-2.83-.84-2.83-3.1s1.38-3.09,2.83-3.09,2.83,.83,2.83,3.09-1.39,3.1-2.83,3.1Zm0-5.03c-.76,0-1.24,.56-1.24,1.93s.48,1.94,1.24,1.94,1.24-.57,1.24-1.94-.48-1.93-1.24-1.93Z"/>
      <path d="M265.86,462.82v.69c.34-.53,.88-.83,1.57-.83,1.36,0,1.93,.91,1.93,2.33v3.72h-1.58v-3.45c0-.63-.07-1.38-.87-1.38-.89,0-1.05,.79-1.05,1.69v3.14h-1.58v-5.92h1.58Z"/>
    </g>
    <g>
      <path d="M361.12,466.19c.05,1.09,.65,1.57,1.31,1.57s1-.32,1.12-.87h1.51c-.17,1-1.06,1.99-2.65,1.99-1.85,0-2.81-1.23-2.81-3.05s1.02-3.15,2.78-3.15,2.83,1.32,2.77,3.5h-4.04Zm0-1h2.53c-.03-1.08-.66-1.36-1.29-1.36-.51,0-1.16,.36-1.24,1.36Z"/>
      <path d="M368.69,465.76l-1.91-2.94h1.74l1.04,1.67,1.07-1.67h1.61l-1.93,2.83,2.04,3.09h-1.75l-1.14-1.83-1.18,1.83h-1.61l2.02-2.98Z"/>
      <path d="M375.2,461.24h1.58v1.58h2.31v1.2h-2.31v2.86c0,.56,.19,.67,.65,.67h1.64v1.19h-2.22c-1.29,0-1.65-.43-1.65-1.61v-3.11h-1.72v-1.2h1.72v-1.58Z"/>
      <path d="M382.44,466.19c.05,1.09,.65,1.57,1.31,1.57s1-.32,1.12-.87h1.51c-.17,1-1.06,1.99-2.65,1.99-1.85,0-2.81-1.23-2.81-3.05s1.02-3.15,2.78-3.15,2.83,1.32,2.77,3.5h-4.04Zm0-1h2.53c-.03-1.08-.66-1.36-1.29-1.36-.51,0-1.16,.36-1.24,1.36Z"/>
      <path d="M391.13,462.82v1c.24-.51,.7-1,1.64-1h.9v1.27h-1.13c-1,0-1.39,.47-1.39,1.63v1.84h2.15v1.19h-5.2v-1.19h1.47v-3.53h-1.47v-1.2h3.04Z"/>
      <path d="M396.95,462.82v.69c.34-.53,.88-.83,1.57-.83,1.36,0,1.93,.91,1.93,2.33v3.72h-1.58v-3.45c0-.63-.07-1.38-.87-1.38-.89,0-1.04,.79-1.04,1.69v3.14h-1.58v-5.92h1.58Z"/>
      <path d="M404.24,468.88c-1.01,0-2-.65-2-1.73,0-1.51,1.73-1.82,3.72-2.07v-.13c0-.91-.4-1.22-1.04-1.22s-1.06,.31-1.1,.96h-1.42c.11-1.17,1.07-2.02,2.57-2.02s2.51,.59,2.51,2.6c0,.19-.02,.98-.02,1.52,0,1.63,.07,1.78,.12,1.96h-1.44v-.76c-.43,.63-1.03,.9-1.89,.9Zm1.76-2.83c-1.53,.15-2.2,.33-2.2,1.03,0,.44,.3,.71,.87,.71,.99,0,1.33-.64,1.33-1.59v-.15Z"/>
      <path d="M409.67,468.74v-1.19h1.72v-5.61h-1.72v-1.18h3.3v6.79h1.72v1.19h-5.02Z"/>
    </g>
    <g>
      <path d="M512.92,467.7c.71,0,1.19-.42,1.19-1.16s-.6-1.18-1.48-1.18h-.46v-1.42h.41c.89,0,1.45-.4,1.45-1.18,0-.56-.37-.99-1.1-.99s-1.13,.45-1.22,1.28h-1.56c.18-1.58,1.29-2.44,2.85-2.44,1.23,0,2.63,.64,2.63,2.09,0,.83-.48,1.5-.97,1.82,.69,.31,1.09,1.17,1.09,1.89,0,1.65-1.41,2.46-2.85,2.46-1.6,0-2.67-.93-2.86-2.65h1.57c.09,.94,.59,1.47,1.32,1.47Z"/>
      <path d="M517.24,460.76h5.79v1.3c-2.29,1.9-3.15,3.65-3.19,6.68h-1.69c0-2.94,1.49-5.33,3.23-6.68h-4.14v-1.3Z"/>
      <path d="M526.59,467.55v-4.29h-2.19v-1.19c1.76-.03,2.27-.44,2.56-1.31h1.21v6.79h1.84v1.19h-5.61v-1.19h2.19Z"/>
      <path d="M533.7,467.55v-4.29h-2.19v-1.19c1.76-.03,2.27-.44,2.56-1.31h1.21v6.79h1.84v1.19h-5.61v-1.19h2.19Z"/>
      <path d="M541.35,467.7c.71,0,1.19-.42,1.19-1.16s-.6-1.18-1.48-1.18h-.46v-1.42h.41c.89,0,1.45-.4,1.45-1.18,0-.56-.37-.99-1.1-.99s-1.13,.45-1.22,1.28h-1.56c.18-1.58,1.29-2.44,2.85-2.44,1.23,0,2.63,.64,2.63,2.09,0,.83-.48,1.5-.97,1.82,.69,.31,1.09,1.17,1.09,1.89,0,1.65-1.41,2.46-2.85,2.46-1.6,0-2.67-.93-2.86-2.65h1.57c.09,.94,.59,1.47,1.32,1.47Z"/>
    </g>
    <g>
      <rect class="cls-4" x="40.56" y="478.91" width="139.47" height="30"/>
      <path class="cls-8" d="M180.53,509.41H40.06v-31H180.53v31Zm-139.47-1H179.53v-29H41.06v29Z"/>
    </g>
    <g>
      <rect class="cls-2" x="180.03" y="478.91" width="139.47" height="30"/>
      <path class="cls-8" d="M320,509.41H179.53v-31h140.47v31Zm-139.47-1h138.47v-29H180.53v29Z"/>
    </g>
    <g>
      <rect class="cls-2" x="319.5" y="478.91" width="139.47" height="30"/>
      <path class="cls-8" d="M459.47,509.41h-140.47v-31h140.47v31Zm-139.47-1h138.47v-29h-138.47v29Z"/>
    </g>
    <g>
      <rect class="cls-2" x="458.97" y="478.91" width="139.47" height="30"/>
      <path class="cls-8" d="M598.94,509.41h-140.47v-31h140.47v31Zm-139.47-1h138.47v-29h-138.47v29Z"/>
    </g>
    <g>
      <path d="M62.94,498.88c-1.45,0-2.83-.84-2.83-3.1s1.38-3.09,2.83-3.09,2.83,.83,2.83,3.09-1.39,3.1-2.83,3.1Zm0-5.03c-.76,0-1.24,.56-1.24,1.93s.48,1.94,1.24,1.94,1.24-.57,1.24-1.94-.48-1.93-1.24-1.93Z"/>
      <path d="M68.64,491.23h1.58v1.58h2.31v1.2h-2.31v2.86c0,.56,.19,.67,.65,.67h1.64v1.19h-2.22c-1.29,0-1.65-.43-1.65-1.61v-3.11h-1.72v-1.2h1.72v-1.58Z"/>
      <path d="M76.17,490.76v2.75c.34-.53,.89-.83,1.58-.83,1.36,0,1.91,.91,1.91,2.33v3.72h-1.58v-3.45c0-.63-.06-1.38-.86-1.38-.89,0-1.06,.79-1.06,1.69v3.14h-1.58v-7.98h1.58Z"/>
      <path d="M82.98,496.18c.06,1.09,.65,1.57,1.31,1.57s1-.32,1.12-.87h1.51c-.17,1-1.06,1.99-2.65,1.99-1.85,0-2.81-1.23-2.81-3.05s1.02-3.15,2.78-3.15,2.83,1.32,2.77,3.5h-4.04Zm0-1h2.53c-.03-1.08-.66-1.36-1.29-1.36-.51,0-1.16,.36-1.24,1.36Z"/>
      <path d="M91.67,492.82v1c.24-.51,.7-1,1.64-1h.9v1.27h-1.13c-1,0-1.39,.47-1.39,1.63v1.84h2.15v1.19h-5.2v-1.19h1.47v-3.53h-1.47v-1.2h3.04Z"/>
      <path d="M96.52,496.58v-1.53h3.89v1.53h-3.89Z"/>
      <path d="M104.3,496.18c.06,1.09,.65,1.57,1.31,1.57s1-.32,1.12-.87h1.51c-.17,1-1.06,1.99-2.65,1.99-1.85,0-2.81-1.23-2.81-3.05s1.02-3.15,2.78-3.15,2.83,1.32,2.77,3.5h-4.04Zm0-1h2.53c-.03-1.08-.66-1.36-1.29-1.36-.51,0-1.16,.36-1.24,1.36Z"/>
      <path d="M111.87,495.76l-1.91-2.94h1.74l1.04,1.67,1.07-1.67h1.61l-1.93,2.83,2.04,3.09h-1.75l-1.14-1.83-1.18,1.83h-1.61l2.02-2.98Z"/>
      <path d="M118.38,491.23h1.58v1.58h2.31v1.2h-2.31v2.86c0,.56,.19,.67,.65,.67h1.64v1.19h-2.22c-1.29,0-1.65-.43-1.65-1.61v-3.11h-1.72v-1.2h1.72v-1.58Z"/>
      <path d="M125.62,496.18c.06,1.09,.65,1.57,1.31,1.57s1-.32,1.12-.87h1.51c-.17,1-1.06,1.99-2.65,1.99-1.85,0-2.81-1.23-2.81-3.05s1.02-3.15,2.78-3.15,2.83,1.32,2.77,3.5h-4.04Zm0-1h2.53c-.03-1.08-.66-1.36-1.29-1.36-.51,0-1.16,.36-1.24,1.36Z"/>
      <path d="M134.31,492.82v1c.24-.51,.7-1,1.64-1h.9v1.27h-1.13c-1,0-1.39,.47-1.39,1.63v1.84h2.15v1.19h-5.2v-1.19h1.47v-3.53h-1.47v-1.2h3.04Z"/>
      <path d="M140.13,492.82v.69c.34-.53,.88-.83,1.57-.83,1.36,0,1.93,.91,1.93,2.33v3.72h-1.58v-3.45c0-.63-.07-1.38-.87-1.38-.89,0-1.05,.79-1.05,1.69v3.14h-1.58v-5.92h1.58Z"/>
      <path d="M147.41,498.88c-1.01,0-2-.65-2-1.73,0-1.51,1.73-1.82,3.72-2.07v-.13c0-.91-.4-1.22-1.05-1.22s-1.06,.31-1.1,.96h-1.42c.11-1.17,1.07-2.02,2.57-2.02s2.51,.59,2.51,2.6c0,.19-.02,.98-.02,1.52,0,1.63,.07,1.78,.12,1.96h-1.44v-.76c-.43,.63-1.03,.9-1.89,.9Zm1.76-2.83c-1.53,.15-2.2,.33-2.2,1.03,0,.44,.3,.71,.87,.71,.99,0,1.33-.64,1.33-1.59v-.15Z"/>
      <path d="M152.84,498.74v-1.19h1.72v-5.61h-1.72v-1.18h3.3v6.79h1.72v1.19h-5.02Z"/>
    </g>
    <g>
      <path d="M230.56,497.32h3.72v1.42h-5.37v-7.98h1.65v6.56Z"/>
      <path d="M238.41,498.88c-1.45,0-2.83-.84-2.83-3.1s1.38-3.09,2.83-3.09,2.83,.83,2.83,3.09-1.39,3.1-2.83,3.1Zm0-5.03c-.76,0-1.24,.56-1.24,1.93s.48,1.94,1.24,1.94,1.24-.57,1.24-1.94-.48-1.93-1.24-1.93Z"/>
      <path d="M244.54,492.82v.69c.34-.53,.88-.83,1.57-.83,1.36,0,1.93,.91,1.93,2.33v3.72h-1.58v-3.45c0-.63-.07-1.38-.87-1.38-.89,0-1.05,.79-1.05,1.69v3.14h-1.58v-5.92h1.58Z"/>
      <path d="M253.74,490.76h1.57v7.98h-1.56v-.74c-.3,.55-.85,.88-1.53,.88-1.35,0-2.4-1.07-2.4-3.09s1.05-3.1,2.4-3.1c.68,0,1.23,.33,1.52,.88v-2.81Zm-1.17,3.09c-.75,0-1.17,.75-1.17,1.94s.42,1.92,1.17,1.92,1.22-.68,1.22-1.92-.46-1.94-1.22-1.94Z"/>
      <path d="M259.73,498.88c-1.45,0-2.83-.84-2.83-3.1s1.38-3.09,2.83-3.09,2.83,.83,2.83,3.09-1.39,3.1-2.83,3.1Zm0-5.03c-.76,0-1.24,.56-1.24,1.93s.48,1.94,1.24,1.94,1.24-.57,1.24-1.94-.48-1.93-1.24-1.93Z"/>
      <path d="M265.86,492.82v.69c.34-.53,.88-.83,1.57-.83,1.36,0,1.93,.91,1.93,2.33v3.72h-1.58v-3.45c0-.63-.07-1.38-.87-1.38-.89,0-1.05,.79-1.05,1.69v3.14h-1.58v-5.92h1.58Z"/>
    </g>
    <g>
      <path d="M361.12,496.19c.05,1.09,.65,1.57,1.31,1.57s1-.32,1.12-.87h1.51c-.17,1-1.06,1.99-2.65,1.99-1.85,0-2.81-1.23-2.81-3.05s1.02-3.15,2.78-3.15,2.83,1.32,2.77,3.5h-4.04Zm0-1h2.53c-.03-1.08-.66-1.36-1.29-1.36-.51,0-1.16,.36-1.24,1.36Z"/>
      <path d="M368.69,495.76l-1.91-2.94h1.74l1.04,1.67,1.07-1.67h1.61l-1.93,2.83,2.04,3.09h-1.75l-1.14-1.83-1.18,1.83h-1.61l2.02-2.98Z"/>
      <path d="M375.2,491.24h1.58v1.58h2.31v1.2h-2.31v2.86c0,.56,.19,.67,.65,.67h1.64v1.19h-2.22c-1.29,0-1.65-.43-1.65-1.61v-3.11h-1.72v-1.2h1.72v-1.58Z"/>
      <path d="M382.44,496.19c.05,1.09,.65,1.57,1.31,1.57s1-.32,1.12-.87h1.51c-.17,1-1.06,1.99-2.65,1.99-1.85,0-2.81-1.23-2.81-3.05s1.02-3.15,2.78-3.15,2.83,1.32,2.77,3.5h-4.04Zm0-1h2.53c-.03-1.08-.66-1.36-1.29-1.36-.51,0-1.16,.36-1.24,1.36Z"/>
      <path d="M391.13,492.82v1c.24-.51,.7-1,1.64-1h.9v1.27h-1.13c-1,0-1.39,.47-1.39,1.63v1.84h2.15v1.19h-5.2v-1.19h1.47v-3.53h-1.47v-1.2h3.04Z"/>
      <path d="M396.95,492.82v.69c.34-.53,.88-.83,1.57-.83,1.36,0,1.93,.91,1.93,2.33v3.72h-1.58v-3.45c0-.63-.07-1.38-.87-1.38-.89,0-1.04,.79-1.04,1.69v3.14h-1.58v-5.92h1.58Z"/>
      <path d="M404.24,498.88c-1.01,0-2-.65-2-1.73,0-1.51,1.73-1.82,3.72-2.07v-.13c0-.91-.4-1.22-1.04-1.22s-1.06,.31-1.1,.96h-1.42c.11-1.17,1.07-2.02,2.57-2.02s2.51,.59,2.51,2.6c0,.19-.02,.98-.02,1.52,0,1.63,.07,1.78,.12,1.96h-1.44v-.76c-.43,.63-1.03,.9-1.89,.9Zm1.76-2.83c-1.53,.15-2.2,.33-2.2,1.03,0,.44,.3,.71,.87,.71,.99,0,1.33-.64,1.33-1.59v-.15Z"/>
      <path d="M409.67,498.74v-1.19h1.72v-5.61h-1.72v-1.18h3.3v6.79h1.72v1.19h-5.02Z"/>
    </g>
    <g>
      <path d="M515.29,493.88c.34-.35,.89-.57,1.57-.57,1.25,0,2.45,1.08,2.45,2.78s-1.21,2.79-2.79,2.79c-1.98,0-2.87-1.74-2.87-3.98s.94-4.28,3.05-4.28c1.63,0,2.46,1.04,2.54,2.31h-1.55c-.07-.78-.57-1.16-1.07-1.16-.74,0-1.32,.71-1.33,2.1Zm1.23,3.83c.67,0,1.19-.64,1.19-1.62s-.52-1.55-1.19-1.55-1.21,.56-1.21,1.55,.51,1.62,1.21,1.62Z"/>
      <path d="M522.4,493.88c.34-.35,.89-.57,1.57-.57,1.25,0,2.45,1.08,2.45,2.78s-1.21,2.79-2.79,2.79c-1.98,0-2.87-1.74-2.87-3.98s.94-4.28,3.05-4.28c1.63,0,2.46,1.04,2.54,2.31h-1.55c-.07-.78-.57-1.16-1.07-1.16-.74,0-1.32,.71-1.33,2.1Zm1.23,3.83c.67,0,1.19-.64,1.19-1.62s-.52-1.55-1.19-1.55-1.21,.56-1.21,1.55,.51,1.62,1.21,1.62Z"/>
      <path d="M531.96,496.1c0-1.07-.64-1.52-1.24-1.52-.55,0-.99,.31-1.19,.85l-1.44-.17,.66-4.5h4.5v1.3h-3.23l-.25,1.65c.42-.32,.92-.42,1.4-.42,1.25,0,2.41,1.01,2.41,2.8s-1.33,2.78-2.87,2.78-2.68-.93-2.87-2.65h1.57c.09,.94,.59,1.47,1.32,1.47s1.24-.56,1.24-1.61Z"/>
      <path d="M537.25,497.55v-4.29h-2.19v-1.19c1.76-.03,2.27-.44,2.56-1.31h1.21v6.79h1.84v1.19h-5.61v-1.19h2.19Z"/>
    </g>
    <g>
      <rect class="cls-3" x="40.56" y="508.91" width="139.47" height="30"/>
      <path class="cls-8" d="M180.53,539.41H40.06v-31H180.53v31Zm-139.47-1H179.53v-29H41.06v29Z"/>
    </g>
    <g>
      <rect class="cls-2" x="180.03" y="508.91" width="139.47" height="30"/>
      <path class="cls-8" d="M320,539.41H179.53v-31h140.47v31Zm-139.47-1h138.47v-29H180.53v29Z"/>
    </g>
    <g>
      <rect class="cls-2" x="319.5" y="508.91" width="139.47" height="30"/>
      <path class="cls-8" d="M459.47,539.41h-140.47v-31h140.47v31Zm-139.47-1h138.47v-29h-138.47v29Z"/>
    </g>
    <g>
      <rect class="cls-2" x="458.97" y="508.91" width="139.47" height="30"/>
      <path class="cls-8" d="M598.94,539.41h-140.47v-31h140.47v31Zm-139.47-1h138.47v-29h-138.47v29Z"/>
    </g>
    <g>
      <path d="M61.8,520.76v4.96c0,1.16,.24,1.8,1.17,1.8s1.12-.75,1.12-1.93v-4.84h1.65v4.5c0,2.45-.58,3.62-2.77,3.62s-2.82-.92-2.82-3.55v-4.57h1.65Z"/>
      <path d="M69.07,522.82v.69c.34-.53,.88-.83,1.57-.83,1.36,0,1.93,.91,1.93,2.33v3.72h-1.58v-3.45c0-.63-.07-1.38-.87-1.38-.89,0-1.05,.79-1.05,1.69v3.14h-1.58v-5.92h1.58Z"/>
      <path d="M74.67,528.74v-1.19h1.72v-3.54h-1.72v-1.19h3.3v4.73h1.73v1.19h-5.03Zm3.3-7.98v1.46h-1.58v-1.46h1.58Z"/>
      <path d="M82.85,521.23h1.58v1.58h2.31v1.2h-2.31v2.86c0,.56,.19,.67,.65,.67h1.64v1.19h-2.22c-1.29,0-1.65-.43-1.65-1.61v-3.11h-1.72v-1.2h1.72v-1.58Z"/>
      <path d="M90.09,526.18c.06,1.09,.65,1.57,1.31,1.57s1-.32,1.12-.87h1.51c-.17,1-1.06,1.99-2.65,1.99-1.85,0-2.81-1.23-2.81-3.05s1.02-3.15,2.78-3.15,2.83,1.32,2.77,3.5h-4.04Zm0-1h2.53c-.03-1.08-.66-1.36-1.29-1.36-.51,0-1.16,.36-1.24,1.36Z"/>
      <path d="M99.58,520.76h1.57v7.98h-1.56v-.74c-.3,.55-.85,.88-1.53,.88-1.35,0-2.4-1.07-2.4-3.09s1.05-3.1,2.4-3.1c.68,0,1.23,.33,1.52,.88v-2.81Zm-1.17,3.09c-.75,0-1.17,.75-1.17,1.94s.42,1.92,1.17,1.92,1.22-.68,1.22-1.92-.46-1.94-1.22-1.94Z"/>
      <path d="M103.11,530.07v-1.33h4.93v1.33h-4.93Z"/>
      <path d="M111.64,523.76l2.17-3h1.93l-2.3,3.04,2.43,4.94h-1.88l-1.71-3.42-.64,.85v2.57h-1.65v-7.98h1.65v3Z"/>
      <path d="M117.3,528.74v-1.19h1.72v-3.54h-1.72v-1.19h3.3v4.73h1.73v1.19h-5.03Zm3.3-7.98v1.46h-1.58v-1.46h1.58Z"/>
      <path d="M125.91,522.82v.69c.34-.53,.88-.83,1.57-.83,1.36,0,1.93,.91,1.93,2.33v3.72h-1.58v-3.45c0-.63-.07-1.38-.87-1.38-.89,0-1.05,.79-1.05,1.69v3.14h-1.58v-5.92h1.58Z"/>
      <path d="M135.11,522.82h1.57v5.31c0,1.95-1.03,2.66-2.74,2.66-1.19,0-2.3-.47-2.49-1.9h1.45c.1,.51,.42,.77,1.04,.77,.79,0,1.16-.53,1.16-1.25v-.64c-.29,.54-.84,.87-1.52,.87-1.35,0-2.4-1.06-2.4-2.97s1.05-2.98,2.4-2.98c.68,0,1.23,.33,1.52,.88v-.75Zm-1.17,1.03c-.75,0-1.17,.75-1.17,1.82s.42,1.82,1.17,1.82,1.22-.68,1.22-1.82-.46-1.82-1.22-1.82Z"/>
      <path d="M142.22,520.76h1.57v7.98h-1.56v-.74c-.3,.55-.85,.88-1.53,.88-1.35,0-2.4-1.07-2.4-3.09s1.05-3.1,2.4-3.1c.68,0,1.23,.33,1.52,.88v-2.81Zm-1.17,3.09c-.75,0-1.17,.75-1.17,1.94s.42,1.92,1.17,1.92,1.22-.68,1.22-1.92-.46-1.94-1.22-1.94Z"/>
      <path d="M148.21,528.88c-1.45,0-2.83-.84-2.83-3.1s1.38-3.09,2.83-3.09,2.83,.83,2.83,3.09-1.39,3.1-2.83,3.1Zm0-5.03c-.76,0-1.24,.56-1.24,1.93s.48,1.94,1.24,1.94,1.24-.57,1.24-1.94-.48-1.93-1.24-1.93Z"/>
      <path d="M154.56,528.74v-3.96c0-.69-.04-.89-.32-.89-.32,0-.4,.31-.4,1.24v3.61h-1.54v-5.92h1.54v.45c.2-.34,.59-.58,1.02-.58,.46,0,.8,.23,.99,.66,.25-.46,.74-.66,1.1-.66,.78,0,1.33,.44,1.33,1.86v4.19h-1.54v-3.96c0-.69-.04-.89-.32-.89-.32,0-.4,.31-.4,1.24v3.61h-1.47Z"/>
    </g>
    <g>
      <path d="M230.56,527.32h3.72v1.42h-5.37v-7.98h1.65v6.56Z"/>
      <path d="M238.41,528.88c-1.45,0-2.83-.84-2.83-3.1s1.38-3.09,2.83-3.09,2.83,.83,2.83,3.09-1.39,3.1-2.83,3.1Zm0-5.03c-.76,0-1.24,.56-1.24,1.93s.48,1.94,1.24,1.94,1.24-.57,1.24-1.94-.48-1.93-1.24-1.93Z"/>
      <path d="M244.54,522.82v.69c.34-.53,.88-.83,1.57-.83,1.36,0,1.93,.91,1.93,2.33v3.72h-1.58v-3.45c0-.63-.07-1.38-.87-1.38-.89,0-1.05,.79-1.05,1.69v3.14h-1.58v-5.92h1.58Z"/>
      <path d="M253.74,520.76h1.57v7.98h-1.56v-.74c-.3,.55-.85,.88-1.53,.88-1.35,0-2.4-1.07-2.4-3.09s1.05-3.1,2.4-3.1c.68,0,1.23,.33,1.52,.88v-2.81Zm-1.17,3.09c-.75,0-1.17,.75-1.17,1.94s.42,1.92,1.17,1.92,1.22-.68,1.22-1.92-.46-1.94-1.22-1.94Z"/>
      <path d="M259.73,528.88c-1.45,0-2.83-.84-2.83-3.1s1.38-3.09,2.83-3.09,2.83,.83,2.83,3.09-1.39,3.1-2.83,3.1Zm0-5.03c-.76,0-1.24,.56-1.24,1.93s.48,1.94,1.24,1.94,1.24-.57,1.24-1.94-.48-1.93-1.24-1.93Z"/>
      <path d="M265.86,522.82v.69c.34-.53,.88-.83,1.57-.83,1.36,0,1.93,.91,1.93,2.33v3.72h-1.58v-3.45c0-.63-.07-1.38-.87-1.38-.89,0-1.05,.79-1.05,1.69v3.14h-1.58v-5.92h1.58Z"/>
    </g>
    <g>
      <path d="M374.14,528.74v-1.19h1.72v-5.61h-1.72v-1.18h3.3v6.79h1.72v1.19h-5.02Z"/>
      <path d="M381.23,528.74v-1.19h1.72v-3.54h-1.72v-1.19h3.3v4.73h1.73v1.19h-5.03Zm3.3-7.98v1.46h-1.58v-1.46h1.58Z"/>
      <path d="M389.85,522.82v.69c.34-.53,.88-.83,1.57-.83,1.36,0,1.93,.91,1.93,2.33v3.72h-1.58v-3.45c0-.63-.07-1.38-.87-1.38-.89,0-1.04,.79-1.04,1.69v3.14h-1.58v-5.92h1.58Z"/>
      <path d="M396.98,527.08v1.66h-1.58v-7.98h1.58v4.35l1.95-2.29h1.76l-2.01,2.3,2.13,3.62h-1.75l-1.41-2.43-.67,.77Z"/>
    </g>
    <g>
      <path d="M519.46,527.12h-1.08v1.62h-1.58v-1.62h-3.5v-1.35l3.61-5.01h1.47v4.93h1.08v1.43Zm-4.63-1.43h1.97v-2.79l-1.97,2.79Z"/>
      <path d="M522.4,523.88c.34-.35,.89-.57,1.57-.57,1.25,0,2.45,1.08,2.45,2.78s-1.21,2.79-2.79,2.79c-1.98,0-2.87-1.74-2.87-3.98s.94-4.28,3.05-4.28c1.63,0,2.46,1.04,2.54,2.31h-1.55c-.07-.78-.57-1.16-1.07-1.16-.74,0-1.32,.71-1.33,2.1Zm1.23,3.83c.67,0,1.19-.64,1.19-1.62s-.52-1.55-1.19-1.55-1.21,.56-1.21,1.55,.51,1.62,1.21,1.62Z"/>
      <path d="M527.84,524.75c0-2.66,.95-4.13,2.89-4.13s2.89,1.46,2.89,4.13-.95,4.14-2.89,4.14-2.89-1.47-2.89-4.14Zm1.62,.07l2.49-1.16c-.12-1.22-.48-1.87-1.21-1.87-.94,0-1.28,1.03-1.28,2.96v.07Zm2.54-.07v-.07l-2.5,1.14c.12,1.23,.48,1.88,1.23,1.88,.92,0,1.26-1.03,1.26-2.96Z"/>
      <path d="M534.95,524.75c0-2.66,.95-4.13,2.89-4.13s2.89,1.46,2.89,4.13-.95,4.14-2.89,4.14-2.89-1.47-2.89-4.14Zm1.62,.07l2.49-1.16c-.12-1.22-.48-1.87-1.21-1.87-.94,0-1.28,1.03-1.28,2.96v.07Zm2.54-.07v-.07l-2.5,1.14c.12,1.23,.48,1.88,1.23,1.88,.92,0,1.26-1.03,1.26-2.96Z"/>
    </g>
    <g>
      <rect class="cls-6" x="40.56" y="538.91" width="139.47" height="30"/>
      <path class="cls-8" d="M180.53,569.41H40.06v-31H180.53v31Zm-139.47-1H179.53v-29H41.06v29Z"/>
    </g>
    <g>
      <rect class="cls-2" x="180.03" y="538.91" width="139.47" height="30"/>
      <path class="cls-8" d="M320,569.41H179.53v-31h140.47v31Zm-139.47-1h138.47v-29H180.53v29Z"/>
    </g>
    <g>
      <rect class="cls-2" x="319.5" y="538.91" width="139.47" height="30"/>
      <path class="cls-8" d="M459.47,569.41h-140.47v-31h140.47v31Zm-139.47-1h138.47v-29h-138.47v29Z"/>
    </g>
    <g>
      <rect class="cls-2" x="458.97" y="538.91" width="139.47" height="30"/>
      <path class="cls-8" d="M598.94,569.41h-140.47v-31h140.47v31Zm-139.47-1h138.47v-29h-138.47v29Z"/>
    </g>
    <g>
      <path d="M81.24,550.76h2.38v7.98h-1.62v-3.63l.03-2.99h-.07l-.68,4.06h-1.17l-.67-4.06h-.08l.03,2.99v3.63h-1.62v-7.98h2.38l.54,3.38,.54-3.38Z"/>
      <path d="M87.01,558.88c-1.01,0-2-.65-2-1.73,0-1.51,1.73-1.82,3.72-2.07v-.13c0-.91-.4-1.22-1.05-1.22s-1.06,.31-1.1,.96h-1.42c.11-1.17,1.07-2.02,2.57-2.02s2.51,.59,2.51,2.6c0,.19-.02,.98-.02,1.52,0,1.63,.07,1.78,.12,1.96h-1.44v-.76c-.43,.63-1.03,.9-1.89,.9Zm1.76-2.83c-1.53,.15-2.2,.33-2.2,1.03,0,.44,.3,.71,.87,.71,.99,0,1.33-.64,1.33-1.59v-.15Z"/>
      <path d="M92.43,558.74v-1.19h1.72v-3.54h-1.72v-1.19h3.3v4.73h1.73v1.19h-5.03Zm3.3-7.98v1.46h-1.58v-1.46h1.58Z"/>
      <path d="M101.04,552.82v.69c.34-.53,.88-.83,1.57-.83,1.36,0,1.93,.91,1.93,2.33v3.72h-1.58v-3.45c0-.63-.07-1.38-.87-1.38-.89,0-1.05,.79-1.05,1.69v3.14h-1.58v-5.92h1.58Z"/>
      <path d="M106.67,560.07v-1.33h4.93v1.33h-4.93Z"/>
      <path d="M116.18,550.76c1.83,0,3.09,.59,3.09,2.45s-1.27,2.42-3.09,2.42h-.81v3.1h-1.65v-7.98h2.46Zm-.81,1.34v2.21h.77c.76,0,1.38-.25,1.38-1.1s-.62-1.11-1.38-1.11h-.77Z"/>
      <path d="M122.54,558.88c-1.01,0-2-.65-2-1.73,0-1.51,1.73-1.82,3.72-2.07v-.13c0-.91-.4-1.22-1.05-1.22s-1.06,.31-1.1,.96h-1.42c.11-1.17,1.07-2.02,2.57-2.02s2.51,.59,2.51,2.6c0,.19-.02,.98-.02,1.52,0,1.63,.07,1.78,.12,1.96h-1.44v-.76c-.43,.63-1.03,.9-1.89,.9Zm1.76-2.83c-1.53,.15-2.2,.33-2.2,1.03,0,.44,.3,.71,.87,.71,.99,0,1.33-.64,1.33-1.59v-.15Z"/>
      <path d="M131.56,552.82h1.57v5.31c0,1.95-1.03,2.66-2.74,2.66-1.19,0-2.3-.47-2.49-1.9h1.45c.1,.51,.42,.77,1.04,.77,.79,0,1.16-.53,1.16-1.25v-.64c-.29,.54-.84,.87-1.52,.87-1.35,0-2.4-1.06-2.4-2.97s1.05-2.98,2.4-2.98c.68,0,1.23,.33,1.52,.88v-.75Zm-1.17,1.03c-.75,0-1.17,.75-1.17,1.82s.42,1.82,1.17,1.82,1.22-.68,1.22-1.82-.46-1.82-1.22-1.82Z"/>
      <path d="M136.28,556.18c.06,1.09,.65,1.57,1.31,1.57s1-.32,1.12-.87h1.51c-.17,1-1.06,1.99-2.65,1.99-1.85,0-2.81-1.23-2.81-3.05s1.02-3.15,2.78-3.15,2.83,1.32,2.77,3.5h-4.04Zm0-1h2.53c-.03-1.08-.66-1.36-1.29-1.36-.51,0-1.16,.36-1.24,1.36Z"/>
    </g>
    <g>
      <path d="M230.56,557.32h3.72v1.42h-5.37v-7.98h1.65v6.56Z"/>
      <path d="M238.41,558.88c-1.45,0-2.83-.84-2.83-3.1s1.38-3.09,2.83-3.09,2.83,.83,2.83,3.09-1.39,3.1-2.83,3.1Zm0-5.03c-.76,0-1.24,.56-1.24,1.93s.48,1.94,1.24,1.94,1.24-.57,1.24-1.94-.48-1.93-1.24-1.93Z"/>
      <path d="M244.54,552.82v.69c.34-.53,.88-.83,1.57-.83,1.36,0,1.93,.91,1.93,2.33v3.72h-1.58v-3.45c0-.63-.07-1.38-.87-1.38-.89,0-1.05,.79-1.05,1.69v3.14h-1.58v-5.92h1.58Z"/>
      <path d="M253.74,550.76h1.57v7.98h-1.56v-.74c-.3,.55-.85,.88-1.53,.88-1.35,0-2.4-1.07-2.4-3.09s1.05-3.1,2.4-3.1c.68,0,1.23,.33,1.52,.88v-2.81Zm-1.17,3.09c-.75,0-1.17,.75-1.17,1.94s.42,1.92,1.17,1.92,1.22-.68,1.22-1.92-.46-1.94-1.22-1.94Z"/>
      <path d="M259.73,558.88c-1.45,0-2.83-.84-2.83-3.1s1.38-3.09,2.83-3.09,2.83,.83,2.83,3.09-1.39,3.1-2.83,3.1Zm0-5.03c-.76,0-1.24,.56-1.24,1.93s.48,1.94,1.24,1.94,1.24-.57,1.24-1.94-.48-1.93-1.24-1.93Z"/>
      <path d="M265.86,552.82v.69c.34-.53,.88-.83,1.57-.83,1.36,0,1.93,.91,1.93,2.33v3.72h-1.58v-3.45c0-.63-.07-1.38-.87-1.38-.89,0-1.05,.79-1.05,1.69v3.14h-1.58v-5.92h1.58Z"/>
    </g>
    <g>
      <path d="M373.06,558.88c-1.45,0-2.83-.84-2.83-3.1s1.38-3.09,2.83-3.09,2.83,.83,2.83,3.09-1.39,3.1-2.83,3.1Zm0-5.03c-.76,0-1.24,.56-1.24,1.93s.48,1.94,1.24,1.94,1.24-.57,1.24-1.94-.48-1.93-1.24-1.93Z"/>
      <path d="M378.76,551.24h1.58v1.58h2.31v1.2h-2.31v2.86c0,.56,.19,.67,.65,.67h1.64v1.19h-2.22c-1.29,0-1.65-.43-1.65-1.61v-3.11h-1.72v-1.2h1.72v-1.58Z"/>
      <path d="M386.29,550.76v2.75c.34-.53,.89-.83,1.58-.83,1.36,0,1.92,.91,1.92,2.33v3.72h-1.58v-3.45c0-.63-.05-1.38-.86-1.38-.89,0-1.06,.79-1.06,1.69v3.14h-1.58v-7.98h1.58Z"/>
      <path d="M393.1,556.19c.05,1.09,.65,1.57,1.31,1.57s1-.32,1.12-.87h1.51c-.17,1-1.06,1.99-2.65,1.99-1.85,0-2.81-1.23-2.81-3.05s1.02-3.15,2.78-3.15,2.83,1.32,2.77,3.5h-4.04Zm0-1h2.53c-.03-1.08-.66-1.36-1.29-1.36-.51,0-1.16,.36-1.24,1.36Z"/>
      <path d="M401.79,552.82v1c.24-.51,.7-1,1.64-1h.9v1.27h-1.13c-1,0-1.39,.47-1.39,1.63v1.84h2.15v1.19h-5.2v-1.19h1.47v-3.53h-1.47v-1.2h3.04Z"/>
    </g>
    <g>
      <path d="M519.18,552.94c0,1.35-.99,2.46-2.48,3.74l-.87,.76h3.3v1.3h-5.37v-1.29l1.66-1.45c1.27-1.09,2.17-2.08,2.17-3.03,0-.78-.53-1.1-1-1.1-.7,0-1.23,.59-1.2,1.77h-1.54c-.06-1.98,1.17-2.99,2.76-2.99,1.45,0,2.56,.84,2.56,2.29Z"/>
      <path d="M524.85,555.59c-.34,.36-.88,.58-1.57,.58-1.25,0-2.44-1.09-2.44-2.79s1.2-2.76,2.78-2.76c1.98,0,2.88,1.65,2.88,3.96s-.93,4.3-3.06,4.3c-1.62,0-2.46-1.06-2.54-2.32h1.55c.07,.78,.58,1.16,1.08,1.16,.74,0,1.31-.74,1.32-2.12Zm-1.23-3.81c-.67,0-1.18,.63-1.18,1.6s.51,1.56,1.18,1.56,1.21-.56,1.21-1.56-.51-1.6-1.21-1.6Z"/>
      <path d="M527.84,554.75c0-2.66,.95-4.13,2.89-4.13s2.89,1.46,2.89,4.13-.95,4.14-2.89,4.14-2.89-1.47-2.89-4.14Zm1.62,.07l2.49-1.16c-.12-1.22-.48-1.87-1.21-1.87-.94,0-1.28,1.03-1.28,2.96v.07Zm2.54-.07v-.07l-2.5,1.14c.12,1.23,.48,1.88,1.23,1.88,.92,0,1.26-1.03,1.26-2.96Z"/>
      <path d="M539.06,555.59c-.34,.36-.88,.58-1.57,.58-1.25,0-2.44-1.09-2.44-2.79s1.2-2.76,2.78-2.76c1.98,0,2.88,1.65,2.88,3.96s-.93,4.3-3.06,4.3c-1.62,0-2.46-1.06-2.54-2.32h1.55c.07,.78,.58,1.16,1.08,1.16,.74,0,1.31-.74,1.32-2.12Zm-1.23-3.81c-.67,0-1.18,.63-1.18,1.6s.51,1.56,1.18,1.56,1.21-.56,1.21-1.56-.51-1.6-1.21-1.6Z"/>
    </g>
    <g>
      <rect class="cls-5" x="40.56" y="568.91" width="139.47" height="30"/>
      <path class="cls-8" d="M180.53,599.41H40.06v-31H180.53v31Zm-139.47-1H179.53v-29H41.06v29Z"/>
    </g>
    <g>
      <rect class="cls-2" x="180.03" y="568.91" width="139.47" height="30"/>
      <path class="cls-8" d="M320,599.41H179.53v-31h140.47v31Zm-139.47-1h138.47v-29H180.53v29Z"/>
    </g>
    <g>
      <rect class="cls-2" x="319.5" y="568.91" width="139.47" height="30"/>
      <path class="cls-8" d="M459.47,599.41h-140.47v-31h140.47v31Zm-139.47-1h138.47v-29h-138.47v29Z"/>
    </g>
    <g>
      <rect class="cls-2" x="458.97" y="568.91" width="139.47" height="30"/>
      <path class="cls-8" d="M598.94,599.41h-140.47v-31h140.47v31Zm-139.47-1h138.47v-29h-138.47v29Z"/>
    </g>
    <g>
      <path d="M85.44,580.76h4.83v1.42h-3.18v1.77h2.96v1.42h-2.96v1.95h3.18v1.42h-4.83v-7.98Z"/>
      <path d="M93.94,582.82v.69c.34-.53,.88-.83,1.57-.83,1.36,0,1.93,.91,1.93,2.33v3.72h-1.58v-3.45c0-.63-.07-1.38-.87-1.38-.89,0-1.05,.79-1.05,1.69v3.14h-1.58v-5.92h1.58Z"/>
      <path d="M103.13,582.82h1.57v5.31c0,1.95-1.03,2.66-2.74,2.66-1.19,0-2.3-.47-2.49-1.9h1.45c.1,.51,.42,.77,1.04,.77,.79,0,1.16-.53,1.16-1.25v-.64c-.29,.54-.84,.87-1.52,.87-1.35,0-2.4-1.06-2.4-2.97s1.05-2.98,2.4-2.98c.68,0,1.23,.33,1.52,.88v-.75Zm-1.17,1.03c-.75,0-1.17,.75-1.17,1.82s.42,1.82,1.17,1.82,1.22-.68,1.22-1.82-.46-1.82-1.22-1.82Z"/>
      <path d="M106.65,588.74v-1.19h1.72v-5.61h-1.72v-1.18h3.3v6.79h1.72v1.19h-5.02Z"/>
      <path d="M115.43,588.88c-1.01,0-2-.65-2-1.73,0-1.51,1.73-1.82,3.72-2.07v-.13c0-.91-.4-1.22-1.05-1.22s-1.06,.31-1.1,.96h-1.42c.11-1.17,1.07-2.02,2.57-2.02s2.51,.59,2.51,2.6c0,.19-.02,.98-.02,1.52,0,1.63,.07,1.78,.12,1.96h-1.44v-.76c-.43,.63-1.03,.9-1.89,.9Zm1.76-2.83c-1.53,.15-2.2,.33-2.2,1.03,0,.44,.3,.71,.87,.71,.99,0,1.33-.64,1.33-1.59v-.15Z"/>
      <path d="M122.36,582.82v.69c.34-.53,.88-.83,1.57-.83,1.36,0,1.93,.91,1.93,2.33v3.72h-1.58v-3.45c0-.63-.07-1.38-.87-1.38-.89,0-1.05,.79-1.05,1.69v3.14h-1.58v-5.92h1.58Z"/>
      <path d="M131.56,580.76h1.57v7.98h-1.56v-.74c-.3,.55-.85,.88-1.53,.88-1.35,0-2.4-1.07-2.4-3.09s1.05-3.1,2.4-3.1c.68,0,1.23,.33,1.52,.88v-2.81Zm-1.17,3.09c-.75,0-1.17,.75-1.17,1.94s.42,1.92,1.17,1.92,1.22-.68,1.22-1.92-.46-1.94-1.22-1.94Z"/>
    </g>
    <g>
      <path d="M230.56,587.32h3.72v1.42h-5.37v-7.98h1.65v6.56Z"/>
      <path d="M238.41,588.88c-1.45,0-2.83-.84-2.83-3.1s1.38-3.09,2.83-3.09,2.83,.83,2.83,3.09-1.39,3.1-2.83,3.1Zm0-5.03c-.76,0-1.24,.56-1.24,1.93s.48,1.94,1.24,1.94,1.24-.57,1.24-1.94-.48-1.93-1.24-1.93Z"/>
      <path d="M244.54,582.82v.69c.34-.53,.88-.83,1.57-.83,1.36,0,1.93,.91,1.93,2.33v3.72h-1.58v-3.45c0-.63-.07-1.38-.87-1.38-.89,0-1.05,.79-1.05,1.69v3.14h-1.58v-5.92h1.58Z"/>
      <path d="M253.74,580.76h1.57v7.98h-1.56v-.74c-.3,.55-.85,.88-1.53,.88-1.35,0-2.4-1.07-2.4-3.09s1.05-3.1,2.4-3.1c.68,0,1.23,.33,1.52,.88v-2.81Zm-1.17,3.09c-.75,0-1.17,.75-1.17,1.94s.42,1.92,1.17,1.92,1.22-.68,1.22-1.92-.46-1.94-1.22-1.94Z"/>
      <path d="M259.73,588.88c-1.45,0-2.83-.84-2.83-3.1s1.38-3.09,2.83-3.09,2.83,.83,2.83,3.09-1.39,3.1-2.83,3.1Zm0-5.03c-.76,0-1.24,.56-1.24,1.93s.48,1.94,1.24,1.94,1.24-.57,1.24-1.94-.48-1.93-1.24-1.93Z"/>
      <path d="M265.86,582.82v.69c.34-.53,.88-.83,1.57-.83,1.36,0,1.93,.91,1.93,2.33v3.72h-1.58v-3.45c0-.63-.07-1.38-.87-1.38-.89,0-1.05,.79-1.05,1.69v3.14h-1.58v-5.92h1.58Z"/>
    </g>
    <g>
      <path d="M374.14,588.74v-1.19h1.72v-5.61h-1.72v-1.18h3.3v6.79h1.72v1.19h-5.02Z"/>
      <path d="M381.23,588.74v-1.19h1.72v-3.54h-1.72v-1.19h3.3v4.73h1.73v1.19h-5.03Zm3.3-7.98v1.46h-1.58v-1.46h1.58Z"/>
      <path d="M389.85,582.82v.69c.34-.53,.88-.83,1.57-.83,1.36,0,1.93,.91,1.93,2.33v3.72h-1.58v-3.45c0-.63-.07-1.38-.87-1.38-.89,0-1.04,.79-1.04,1.69v3.14h-1.58v-5.92h1.58Z"/>
      <path d="M396.98,587.08v1.66h-1.58v-7.98h1.58v4.35l1.95-2.29h1.76l-2.01,2.3,2.13,3.62h-1.75l-1.41-2.43-.67,.77Z"/>
    </g>
    <g>
      <path d="M519.18,582.94c0,1.35-.99,2.46-2.48,3.74l-.87,.76h3.3v1.3h-5.37v-1.29l1.66-1.45c1.27-1.09,2.17-2.08,2.17-3.03,0-.78-.53-1.1-1-1.1-.7,0-1.23,.59-1.2,1.77h-1.54c-.06-1.98,1.17-2.99,2.76-2.99,1.45,0,2.56,.84,2.56,2.29Z"/>
      <path d="M526.29,582.94c0,1.35-.99,2.46-2.48,3.74l-.87,.76h3.3v1.3h-5.37v-1.29l1.66-1.45c1.27-1.09,2.17-2.08,2.17-3.03,0-.78-.53-1.1-1-1.1-.7,0-1.23,.59-1.2,1.77h-1.54c-.06-1.98,1.17-2.99,2.76-2.99,1.45,0,2.56,.84,2.56,2.29Z"/>
      <path d="M529.5,583.88c.34-.35,.89-.57,1.57-.57,1.25,0,2.45,1.08,2.45,2.78s-1.21,2.79-2.79,2.79c-1.98,0-2.87-1.74-2.87-3.98s.94-4.28,3.05-4.28c1.63,0,2.46,1.04,2.54,2.31h-1.55c-.07-.78-.57-1.16-1.07-1.16-.74,0-1.32,.71-1.33,2.1Zm1.23,3.83c.67,0,1.19-.64,1.19-1.62s-.52-1.55-1.19-1.55-1.21,.56-1.21,1.55,.51,1.62,1.21,1.62Z"/>
      <path d="M537.25,587.55v-4.29h-2.19v-1.19c1.76-.03,2.27-.44,2.56-1.31h1.21v6.79h1.84v1.19h-5.61v-1.19h2.19Z"/>
    </g>
  </g>
</svg>